<?xml version="1.0" encoding="UTF-8"?>
<svg id="Layer_1" xmlns="http://www.w3.org/2000/svg" width="237.339mm" height="102.065mm" version="1.1" viewBox="0 0 672.772 289.319">
  <!-- Generator: Adobe Illustrator 29.3.0, SVG Export Plug-In . SVG Version: 2.1.0 Build 146)  -->
  <rect x="422.636" y="10" width="102.4" height="38.399" fill="#e8ecf7" stroke="#000" stroke-linecap="square" stroke-miterlimit="10" stroke-width=".8"/>
  <rect x="438.624" y="29.2" width="70.399" height="12.8" fill="#d0d9ee" stroke="#000" stroke-linecap="square" stroke-miterlimit="10" stroke-width=".8"/>
  <text transform="translate(455.98 17.519)" font-size="5.6"><tspan font-family="Arial-BoldMT, Arial" font-weight="700"><tspan x="0" y="0">Display panel</tspan></tspan><tspan font-family="ArialMT, Arial"><tspan x="-26.298" y="6.72">RK043FN66HS-CTG/RK043FN02H</tspan></tspan></text>
  <text transform="translate(447.376 37.839)" font-family="ArialMT, Arial" font-size="5.6"><tspan x="0" y="0">4.3” TFT LCD display</tspan></text>
  <rect x="397.036" y="211.569" width="63.999" height="57.631" fill="#e8ecf7" stroke="#000" stroke-linecap="square" stroke-miterlimit="10" stroke-width=".8"/>
  <rect x="403.436" y="230.801" width="51.199" height="31.999" fill="#a7bae0" stroke="#000" stroke-linecap="square" stroke-miterlimit="10" stroke-width=".8"/>
  <rect x="256.335" y="51.6" width="89.501" height="86.483" fill="#e8ecf7" stroke="#000" stroke-linecap="square" stroke-miterlimit="10" stroke-width=".8"/>
  <rect x="128.168" y="54.8" width="70.561" height="137.321" fill="#e8ecf7" stroke="#000" stroke-linecap="square" stroke-miterlimit="10" stroke-width=".8"/>
  <rect x="6.636" y="54.8" width="114.625" height="137.321" fill="#e8ecf7" stroke="#000" stroke-linecap="square" stroke-miterlimit="10" stroke-width=".8"/>
  <rect x="237.036" y=".4" width="435.336" height="281.632" fill="none" stroke="#000" stroke-linecap="square" stroke-miterlimit="10" stroke-width=".8"/>
  <rect x=".4" y="42" width="204.758" height="159.849" fill="none" stroke="#000" stroke-linecap="square" stroke-miterlimit="10" stroke-width=".8"/>
  <rect x="569.895" y="77.231" width="92.573" height="54.369" fill="#e8ecf7" stroke="#000" stroke-linecap="square" stroke-miterlimit="10" stroke-width=".8"/>
  <rect x="384.595" y="70.8" width="166.041" height="115.069" fill="#e8ecf7" stroke="#000" stroke-linecap="square" stroke-miterlimit="10" stroke-width=".8"/>
  <rect x="451.436" y="115.667" width="38.461" height="25.439" fill="#a7bae0" stroke="#000" stroke-linecap="square" stroke-miterlimit="10" stroke-width=".8"/>
  <rect x="597.356" y="96.401" width="38.399" height="28.799" fill="#a7bae0" stroke="#000" stroke-linecap="square" stroke-miterlimit="10" stroke-width=".8"/>
  <rect x="262.715" y="86.819" width="76.721" height="19.122" fill="#a7bae0" stroke="#000" stroke-linecap="square" stroke-miterlimit="10" stroke-width=".8"/>
  <rect x="419.498" y="83.667" width="28.799" height="16" fill="#d0d9ee" stroke="#000" stroke-linecap="square" stroke-miterlimit="10" stroke-width=".8"/>
  <g>
    <rect x="496.296" y="83.667" width="38.399" height="16" fill="#d0d9ee"/>
    <g>
      <polyline points="534.696 85.667 534.696 83.667 532.696 83.667" fill="none" stroke="#000" stroke-linecap="square" stroke-miterlimit="10" stroke-width=".8"/>
      <line x1="530.296" y1="83.667" x2="499.496" y2="83.667" fill="none" stroke="#000" stroke-dasharray="4 2.4" stroke-linecap="square" stroke-miterlimit="10" stroke-width=".8"/>
      <polyline points="498.296 83.667 496.296 83.667 496.296 85.667" fill="none" stroke="#000" stroke-linecap="square" stroke-miterlimit="10" stroke-width=".8"/>
      <line x1="496.296" y1="87.562" x2="496.296" y2="96.72" fill="none" stroke="#000" stroke-dasharray="3.158 1.895" stroke-linecap="square" stroke-miterlimit="10" stroke-width=".8"/>
      <polyline points="496.296 97.667 496.296 99.667 498.296 99.667" fill="none" stroke="#000" stroke-linecap="square" stroke-miterlimit="10" stroke-width=".8"/>
      <line x1="500.696" y1="99.667" x2="531.496" y2="99.667" fill="none" stroke="#000" stroke-dasharray="4 2.4" stroke-linecap="square" stroke-miterlimit="10" stroke-width=".8"/>
      <polyline points="532.696 99.667 534.696 99.667 534.696 97.667" fill="none" stroke="#000" stroke-linecap="square" stroke-miterlimit="10" stroke-width=".8"/>
      <line x1="534.696" y1="95.772" x2="534.696" y2="86.615" fill="none" stroke="#000" stroke-dasharray="3.158 1.895" stroke-linecap="square" stroke-miterlimit="10" stroke-width=".8"/>
    </g>
  </g>
  <rect x="403.479" y="166.736" width="32.038" height="16" fill="#d0d9ee" stroke="#000" stroke-linecap="square" stroke-miterlimit="10" stroke-width=".8"/>
  <rect x="134.21" y="235.849" width="7.93" height="7.111" fill="#a7bae0" stroke="#000" stroke-linecap="square" stroke-miterlimit="10" stroke-width=".8"/>
  <rect x="262.793" y="112.502" width="76.76" height="19.2" fill="#a7bae0" stroke="#000" stroke-linecap="square" stroke-miterlimit="10" stroke-width=".8"/>
  <text transform="translate(646.612 287.76)" font-family="Arial-ItalicMT, Arial" font-size="4.8" font-style="italic"><tspan x="0" y="0">aaa-065241</tspan></text>
  <text transform="translate(281.095 58.102)" font-family="Arial-BoldMT, Arial" font-size="5.6" font-weight="700"><tspan x="0" y="0">EVSE-EMETER</tspan></text>
  <rect x="262.715" y="61.302" width="76.721" height="19.122" fill="#d0d9ee" stroke="#000" stroke-linecap="square" stroke-miterlimit="10" stroke-width=".8"/>
  <text transform="translate(284.257 72.595)" font-family="ArialMT, Arial" font-size="5.6"><tspan x="0" y="0">Segment LCD</tspan></text>
  <rect x="256.236" y="170" width="89.501" height="60.8" fill="#e8ecf7" stroke="#000" stroke-linecap="square" stroke-miterlimit="10" stroke-width=".8"/>
  <text transform="translate(281.31 177.04)" font-family="Arial-BoldMT, Arial" font-size="5.6" font-weight="700"><tspan x="0" y="0">SIGBRD-HPGP</tspan></text>
  <g>
    <rect x="262.616" y="179.67" width="76.721" height="19.121" fill="#a7bae0"/>
    <g>
      <polyline points="339.337 182.17 339.337 179.67 336.837 179.67" fill="none" stroke="#000" stroke-linecap="square" stroke-miterlimit="10" stroke-width=".8"/>
      <line x1="333.968" y1="179.67" x2="266.55" y2="179.67" fill="none" stroke="#000" stroke-dasharray="4.781 2.869" stroke-linecap="square" stroke-miterlimit="10" stroke-width=".8"/>
      <polyline points="265.116 179.67 262.616 179.67 262.616 182.17" fill="none" stroke="#000" stroke-linecap="square" stroke-miterlimit="10" stroke-width=".8"/>
      <line x1="262.616" y1="186.021" x2="262.616" y2="194.365" fill="none" stroke="#000" stroke-dasharray="6.419 3.851" stroke-linecap="square" stroke-miterlimit="10" stroke-width=".8"/>
      <polyline points="262.616 196.291 262.616 198.791 265.116 198.791" fill="none" stroke="#000" stroke-linecap="square" stroke-miterlimit="10" stroke-width=".8"/>
      <line x1="267.985" y1="198.791" x2="335.402" y2="198.791" fill="none" stroke="#000" stroke-dasharray="4.781 2.869" stroke-linecap="square" stroke-miterlimit="10" stroke-width=".8"/>
      <polyline points="336.837 198.791 339.337 198.791 339.337 196.291" fill="none" stroke="#000" stroke-linecap="square" stroke-miterlimit="10" stroke-width=".8"/>
      <line x1="339.337" y1="192.44" x2="339.337" y2="184.095" fill="none" stroke="#000" stroke-dasharray="6.419 3.851" stroke-linecap="square" stroke-miterlimit="10" stroke-width=".8"/>
    </g>
  </g>
  <text transform="translate(281.05 191.76)" font-family="ArialMT, Arial" font-size="5.6"><tspan x="0" y="0">MCX A154 MCU</tspan></text>
  <rect x="262.616" y="205.2" width="76.721" height="19.122" fill="#d0d9ee" stroke="#000" stroke-linecap="square" stroke-miterlimit="10" stroke-width=".8"/>
  <text transform="translate(274.196 216.493)" font-family="ArialMT, Arial" font-size="5.6"><tspan x="0" y="0">HomePlug green PHY</tspan></text>
  <text transform="translate(279.591 98.527)" font-family="ArialMT, Arial" font-size="5.6"><tspan x="0" y="0">MKM35Z512 AFE</tspan></text>
  <text transform="translate(269.849 120.98)" font-family="ArialMT, Arial" font-size="5.6"><tspan x="0" y="0">MCXN947 Metrology and</tspan><tspan x="16.812" y="6.72">safety MCU</tspan></text>
  <rect x="134.879" y="86.819" width="51.033" height="19.122" fill="#a7bae0" stroke="#000" stroke-linecap="square" stroke-miterlimit="10" stroke-width=".8"/>
  <rect x="134.957" y="147.565" width="51.072" height="19.2" fill="#d0d9ee" stroke="#000" stroke-linecap="square" stroke-miterlimit="10" stroke-width=".8"/>
  <text transform="translate(144.268 63.203)" font-family="Arial-BoldMT, Arial" font-size="5.6" font-weight="700"><tspan x="0" y="0">EasyEVSE EV</tspan><tspan x="-11.19" y="6.72">Charging signal board</tspan></text>
  <text transform="translate(30.688 63.203)" font-family="Arial-BoldMT, Arial" font-size="5.6" font-weight="700"><tspan x="0" y="0">Service processing board</tspan></text>
  <text transform="translate(81.143 50.32)" font-family="ArialMT, Arial" font-size="5.6"><tspan x="0" y="0">Electrical vehicle</tspan></text>
  <text transform="translate(143.646 95.307)" font-family="ArialMT, Arial" font-size="5.6"><tspan x="0" y="0">Metrology and</tspan><tspan x="3.118" y="6.72">safety MCU</tspan></text>
  <rect x="54.665" y="96.21" width="31.964" height="25.774" fill="#a7bae0" stroke="#000" stroke-linecap="square" stroke-miterlimit="10" stroke-width=".8"/>
  <text transform="translate(64.871 107.552)" font-family="ArialMT, Arial" font-size="5.6"><tspan x="0" y="0">Host</tspan><tspan x="-5.759" y="6.72">controller</tspan></text>
  <text transform="translate(147.759 155.763)" font-family="ArialMT, Arial" font-size="5.6"><tspan x="0" y="0">HomePlug</tspan><tspan x="-.623" y="6.72">green PHY</tspan></text>
  <rect x="13.029" y="67.6" width="32" height="19.2" fill="#d0d9ee" stroke="#000" stroke-linecap="square" stroke-miterlimit="10" stroke-width=".8"/>
  <text transform="translate(18.917 79.018)" font-family="ArialMT, Arial" font-size="5.6"><tspan x="0" y="0">SDRAM</tspan></text>
  <text transform="translate(90.183 100.24)" font-family="ArialMT, Arial" font-size="5.6"><tspan x="0" y="0">UART</tspan></text>
  <text transform="translate(29.668 93.84)" font-family="ArialMT, Arial" font-size="5.6"><tspan x="0" y="0">16-bit data</tspan></text>
  <text transform="translate(90.183 108.007)" font-family="ArialMT, Arial" font-size="5.6"><tspan x="0" y="0">SPI</tspan></text>
  <text transform="translate(90.183 115.704)" font-family="ArialMT, Arial" font-size="5.6"><tspan x="0" y="0">Ethernet</tspan></text>
  <text transform="translate(136.559 178.706)" font-family="ArialMT, Arial" font-size="5.6"><tspan x="0" y="0">EVSE-SIG-BRD2X/</tspan><tspan x="4.671" y="6.72">SIGBRD-HPGP</tspan></text>
  <text transform="translate(212.009 132.408)" font-family="ArialMT, Arial" font-size="5.6"><tspan x="0" y="0">Control</tspan><tspan x="3.89" y="6.72">pilot</tspan></text>
  <text transform="translate(10.568 178.706)" font-family="ArialMT, Arial" font-size="5.6"><tspan x="0" y="0">MIMXRT1060-EVK / MIMXRT1060-EVKB </tspan><tspan x="0" y="6.72">MIMXRT1060-EVKC / MIMXRT1064-EVK</tspan></text>
  <text transform="translate(387.773 78.88)" font-family="Arial-BoldMT, Arial" font-size="5.6" font-weight="700"><tspan x="0" y="0">Service processing board</tspan></text>
  <text transform="translate(423.693 93.905)" font-family="ArialMT, Arial" font-size="5.6"><tspan x="0" y="0">SDRAM</tspan></text>
  <text transform="translate(347.94 120.357)" font-family="ArialMT, Arial" font-size="5.6"><tspan x="0" y="0">UART</tspan></text>
  <text transform="translate(350.24 210.306)" font-family="ArialMT, Arial" font-size="5.6"><tspan x="0" y="0">SPI</tspan></text>
  <text transform="translate(412.923 173.525)" font-family="ArialMT, Arial" font-size="5.6"><tspan x="0" y="0">QSPI</tspan><tspan x=".777" y="6.72">flash</tspan></text>
  <text transform="translate(440.985 172.745)" font-family="ArialMT, Arial" font-size="5.6"><tspan x="0" y="0">QSPI</tspan></text>
  <text transform="translate(431.295 137.36)" font-family="ArialMT, Arial" font-size="5.6"><tspan x="0" y="0">RMII</tspan></text>
  <text transform="translate(144.876 241.537)" font-family="ArialMT, Arial" font-size="5.6"><tspan x="0" y="0">NXP technology</tspan></text>
  <g>
    <polyline points="142.14 225.12 142.14 223.12 140.14 223.12" fill="none" stroke="#000" stroke-linecap="square" stroke-miterlimit="10" stroke-width=".8"/>
    <polyline points="136.21 223.12 134.21 223.12 134.21 225.12" fill="none" stroke="#000" stroke-linecap="square" stroke-miterlimit="10" stroke-width=".8"/>
    <polyline points="134.21 228.231 134.21 230.231 136.21 230.231" fill="none" stroke="#000" stroke-linecap="square" stroke-miterlimit="10" stroke-width=".8"/>
    <polyline points="140.14 230.231 142.14 230.231 142.14 228.231" fill="none" stroke="#000" stroke-linecap="square" stroke-miterlimit="10" stroke-width=".8"/>
  </g>
  <text transform="translate(144.876 228.808)" font-family="ArialMT, Arial" font-size="5.6"><tspan x="0" y="0">Optional technology</tspan></text>
  <text transform="translate(409.43 219.28)" font-size="5.6"><tspan font-family="Arial-BoldMT, Arial" font-weight="700"><tspan x="0" y="0">Security board</tspan></tspan><tspan font-family="ArialMT, Arial"><tspan x="-2.956" y="6.72">OM-SE050ARD-E</tspan></tspan></text>
  <text transform="translate(409.423 237.84)" font-family="ArialMT, Arial" font-size="5.6"><tspan x="0" y="0">Secure element</tspan></text>
  <text transform="translate(485.846 149.995)" font-family="ArialMT, Arial" font-size="5.6"><tspan x="0" y="0">USB</tspan></text>
  <text transform="translate(563.75 150.451)" font-family="ArialMT, Arial" font-size="5.6"><tspan x="0" y="0">USB</tspan></text>
  <text transform="translate(495.79 126.818)" font-family="ArialMT, Arial" font-size="5.6"><tspan x="0" y="0">SDIO</tspan></text>
  <text transform="translate(431.083 206.251)" font-family="ArialMT, Arial"><tspan x="0" y="0" font-size="5.6">I</tspan><tspan x="1.556" y="-1.68" font-size="4.8">2</tspan><tspan x="4.226" y="0" font-size="5.6">C</tspan></text>
  <text transform="translate(478.002 59.831)" font-family="ArialMT, Arial"><tspan x="0" y="0" font-size="5.6">I</tspan><tspan x="1.556" y="-1.68" font-size="4.8">2</tspan><tspan x="4.226" y="0" font-size="5.6">C touch</tspan><tspan font-size="5.6"><tspan x="0" y="6.72">interface</tspan></tspan></text>
  <text transform="translate(438.74 59.831)" font-family="ArialMT, Arial" font-size="5.6"><tspan x="0" y="0">16-bit data</tspan><tspan x="-14.003" y="6.72">display interface</tspan></text>
  <text transform="translate(430.818 109.032)" font-family="ArialMT, Arial" font-size="5.6"><tspan x="0" y="0">16-bit data</tspan></text>
  <text transform="translate(573.456 84.27)" font-size="5.6"><tspan font-family="Arial-BoldMT, Arial" font-weight="700"><tspan x="0" y="0">Wireless communications board</tspan></tspan><tspan font-family="ArialMT, Arial"><tspan x="25.668" y="6.72">LBEE5CJ1XK</tspan></tspan></text>
  <text transform="translate(607.685 108.56)" font-family="ArialMT, Arial" font-size="5.6"><tspan x="0" y="0">IW416 </tspan><tspan x="-4.825" y="6.72">Dual-radio </tspan></text>
  <text transform="translate(465.74 126.386)" font-family="ArialMT, Arial" font-size="5.6"><tspan x="0" y="0">Host</tspan><tspan x="-5.759" y="6.72">controller</tspan></text>
  <text transform="translate(504.91 90.066)" font-family="ArialMT, Arial" font-size="5.6"><tspan x="0" y="0">Ethernet</tspan><tspan x="4.828" y="6.72">PHY</tspan></text>
  <g>
    <rect x="400.14" y="144.4" width="35.295" height="16" fill="#d0d9ee"/>
    <g>
      <polyline points="435.435 146.4 435.435 144.4 433.435 144.4" fill="none" stroke="#000" stroke-linecap="square" stroke-miterlimit="10" stroke-width=".8"/>
      <line x1="431.252" y1="144.4" x2="403.232" y2="144.4" fill="none" stroke="#000" stroke-dasharray="3.639 2.183" stroke-linecap="square" stroke-miterlimit="10" stroke-width=".8"/>
      <polyline points="402.14 144.4 400.14 144.4 400.14 146.4" fill="none" stroke="#000" stroke-linecap="square" stroke-miterlimit="10" stroke-width=".8"/>
      <line x1="400.14" y1="148.295" x2="400.14" y2="157.452" fill="none" stroke="#000" stroke-dasharray="3.158 1.895" stroke-linecap="square" stroke-miterlimit="10" stroke-width=".8"/>
      <polyline points="400.14 158.4 400.14 160.4 402.14 160.4" fill="none" stroke="#000" stroke-linecap="square" stroke-miterlimit="10" stroke-width=".8"/>
      <line x1="404.324" y1="160.4" x2="432.343" y2="160.4" fill="none" stroke="#000" stroke-dasharray="3.639 2.183" stroke-linecap="square" stroke-miterlimit="10" stroke-width=".8"/>
      <polyline points="433.435 160.4 435.435 160.4 435.435 158.4" fill="none" stroke="#000" stroke-linecap="square" stroke-miterlimit="10" stroke-width=".8"/>
      <line x1="435.435" y1="156.505" x2="435.435" y2="147.347" fill="none" stroke="#000" stroke-dasharray="3.158 1.895" stroke-linecap="square" stroke-miterlimit="10" stroke-width=".8"/>
    </g>
  </g>
  <text transform="translate(407.571 151.349)" font-family="ArialMT, Arial" font-size="5.6"><tspan x="0" y="0">Ethernet</tspan><tspan x="4.828" y="6.72">PHY</tspan></text>
  <text transform="translate(504.439 150.668)" font-family="ArialMT, Arial" font-size="5.6"><tspan x="0" y="0">Virtual comm</tspan><tspan x="5.598" y="6.72">interface</tspan></text>
  <text transform="translate(588.109 167.44)" font-family="ArialMT, Arial" font-size="5.6"><tspan x="0" y="0">Command-line</tspan><tspan x="7.468" y="6.72">interface</tspan></text>
  <g>
    <polygon points="475.499 115.027 476.777 112.466 474.216 112.466 475.499 115.027"/>
    <line x1="475.499" y1="113.747" x2="475.499" y2="48.855" fill="none" stroke="#000" stroke-linecap="square" stroke-width=".4"/>
  </g>
  <polygon points="483.479 115.027 484.757 112.466 482.196 112.466 483.479 115.027"/>
  <g>
    <polygon points="495.657 91.347 493.096 90.069 493.096 92.63 495.657 91.347"/>
    <g>
      <line x1="494.376" y1="91.347" x2="492.376" y2="91.347" fill="none" stroke="#000" stroke-linecap="square" stroke-width=".4"/>
      <line x1="490.495" y1="91.347" x2="486.418" y2="91.347" fill="none" stroke="#000" stroke-dasharray="3.136 1.882" stroke-linecap="square" stroke-width=".4"/>
      <polyline points="485.477 91.347 483.477 91.347 483.479 91.347 483.479 93.347" fill="none" stroke="#000" stroke-linecap="square" stroke-width=".4"/>
      <line x1="483.479" y1="95.391" x2="483.479" y2="110.724" fill="none" stroke="#000" stroke-dasharray="3.407 2.044" stroke-linecap="square" stroke-width=".4"/>
      <line x1="483.479" y1="111.747" x2="483.479" y2="113.747" fill="none" stroke="#000" stroke-linecap="square" stroke-width=".4"/>
    </g>
  </g>
  <g>
    <polygon points="448.937 91.352 451.497 92.63 451.497 90.069 448.937 91.352"/>
    <line x1="450.217" y1="91.352" x2="459.497" y2="91.352" fill="none" stroke="#000" stroke-linecap="square" stroke-width=".4"/>
  </g>
  <g>
    <polygon points="467.497 115.027 468.775 112.466 466.214 112.466 467.497 115.027"/>
    <line x1="467.497" y1="113.747" x2="467.497" y2="48.933" fill="none" stroke="#000" stroke-linecap="square" stroke-width=".4"/>
  </g>
  <g>
    <polygon points="601.836 76.56 603.114 74 600.553 74 601.836 76.56"/>
    <polygon points="601.836 52.24 603.114 54.8 600.553 54.8 601.836 52.24"/>
    <line x1="601.836" y1="75.28" x2="601.836" y2="54.16" fill="none" stroke="#000" stroke-dasharray="3.2 2.4" stroke-linecap="square" stroke-width=".4"/>
  </g>
  <g>
    <polygon points="459.497 115.027 460.775 112.466 458.214 112.466 459.497 115.027"/>
    <line x1="459.497" y1="113.747" x2="459.497" y2="91.347" fill="none" stroke="#000" stroke-linecap="square" stroke-width=".4"/>
  </g>
  <polygon points="464.239 141.476 465.517 144.036 462.956 144.036 464.239 141.476"/>
  <polygon points="470.638 141.476 471.916 144.036 469.355 144.036 470.638 141.476"/>
  <polygon points="429.033 211.143 427.755 208.583 430.316 208.583 429.033 211.143"/>
  <polygon points="591.715 152.004 589.155 153.282 589.155 150.721 591.715 152.004"/>
  <g>
    <polygon points="436.157 174.733 438.717 173.455 438.717 176.016 436.157 174.733"/>
    <line x1="437.437" y1="174.733" x2="457.897" y2="174.733" fill="none" stroke="#000" stroke-linecap="square" stroke-width=".4"/>
  </g>
  <g>
    <polygon points="457.897 141.426 459.175 143.986 456.614 143.986 457.897 141.426"/>
    <line x1="457.897" y1="142.706" x2="457.897" y2="174.738" fill="none" stroke="#000" stroke-linecap="square" stroke-width=".4"/>
  </g>
  <g>
    <polygon points="500.936 151.947 498.376 150.669 498.376 153.229 500.936 151.947"/>
    <line x1="499.656" y1="151.947" x2="483.496" y2="151.947" fill="none" stroke="#000" stroke-linecap="square" stroke-width=".4"/>
  </g>
  <g>
    <polygon points="483.496 141.426 482.217 143.986 484.778 143.986 483.496 141.426"/>
    <line x1="483.496" y1="142.706" x2="483.496" y2="151.631" fill="none" stroke="#000" stroke-linecap="square" stroke-width=".4"/>
  </g>
  <g>
    <polygon points="477.033 141.426 475.755 143.986 478.316 143.986 477.033 141.426"/>
    <line x1="477.033" y1="142.706" x2="477.033" y2="171.43" fill="none" stroke="#000" stroke-linecap="square" stroke-width=".4"/>
  </g>
  <g>
    <polygon points="540.246 152.059 542.806 153.337 542.806 150.776 540.246 152.059"/>
    <line x1="541.526" y1="152.059" x2="589.036" y2="152.059" fill="none" stroke="#000" stroke-linecap="square" stroke-width=".4"/>
  </g>
  <polygon points="586.708 52.068 583.954 52.847 585.679 54.74 586.708 52.068"/>
  <polygon points="551.339 84.189 554.092 83.41 552.368 81.517 551.339 84.189"/>
  <g>
    <line x1="552.285" y1="83.327" x2="553.47" y2="82.252" fill="none" stroke="#000" stroke-linecap="square" stroke-width=".4"/>
    <line x1="555.238" y1="80.647" x2="583.223" y2="55.242" fill="none" stroke="#000" stroke-dasharray="3.183 2.387" stroke-linecap="square" stroke-width=".4"/>
    <line x1="584.107" y1="54.439" x2="585.291" y2="53.364" fill="none" stroke="#000" stroke-linecap="square" stroke-width=".4"/>
  </g>
  <g>
    <polygon points="450.796 121.805 448.236 120.526 448.236 123.087 450.796 121.805"/>
    <line x1="449.516" y1="121.805" x2="342.055" y2="121.805" fill="none" stroke="#000" stroke-linecap="square" stroke-width=".4"/>
  </g>
  <g>
    <polygon points="450.796 134.601 448.236 133.322 448.236 135.883 450.796 134.601"/>
    <polyline points="449.516 134.601 445.036 134.601 445.036 152.154 437.356 152.154" fill="none" stroke="#000" stroke-linecap="square" stroke-width=".4"/>
  </g>
  <g>
    <polygon points="450.796 128.204 448.236 126.926 448.236 129.487 450.796 128.204"/>
    <polyline points="449.516 128.204 371.28 128.204 371.28 211.518 347.518 211.518" fill="none" stroke="#000" stroke-linecap="square" stroke-width=".4"/>
  </g>
  <polygon points="340.074 121.809 342.634 123.087 342.634 120.526 340.074 121.809"/>
  <g>
    <polygon points="255.596 70.797 253.036 69.519 253.036 72.08 255.596 70.797"/>
    <line x1="254.316" y1="70.797" x2="233.257" y2="70.797" fill="none" stroke="#000" stroke-linecap="square" stroke-width=".4"/>
  </g>
  <polygon points="231.276 70.802 233.836 72.08 233.836 69.519 231.276 70.802"/>
  <g>
    <polygon points="255.596 89.997 253.036 88.719 253.036 91.28 255.596 89.997"/>
    <line x1="254.316" y1="89.997" x2="233.257" y2="89.997" fill="none" stroke="#000" stroke-linecap="square" stroke-width=".4"/>
  </g>
  <polygon points="231.276 90.002 233.836 91.28 233.836 88.719 231.276 90.002"/>
  <polyline points="246.634 137.906 246.634 122 262.636 122" fill="none" stroke="#000" stroke-linecap="square" stroke-width=".4"/>
  <polygon points="246.639 139.633 247.917 137.073 245.356 137.073 246.639 139.633"/>
  <line x1="242.734" y1="141.17" x2="195.811" y2="141.17" fill="none" stroke="#000" stroke-linecap="square" stroke-width=".4"/>
  <polygon points="245.141 141.165 242.581 139.887 242.581 142.448 245.141 141.165"/>
  <polygon points="193.891 141.165 196.451 139.887 196.451 142.448 193.891 141.165"/>
  <polygon points="134.39 153.86 131.83 152.582 131.83 155.143 134.39 153.86"/>
  <polygon points="134.39 96.375 131.83 95.097 131.83 97.658 134.39 96.375"/>
  <polygon points="134.39 160.26 131.83 158.982 131.83 161.543 134.39 160.26"/>
  <polyline points="132.408 153.865 115.436 153.865 115.436 109.202 88.756 109.202" fill="none" stroke="#000" stroke-linecap="square" stroke-width=".4"/>
  <polygon points="87.269 109.197 89.829 107.919 89.829 110.48 87.269 109.197"/>
  <polyline points="132.408 96.38 115.436 96.38 115.436 101.606 88.756 101.606" fill="none" stroke="#000" stroke-linecap="square" stroke-width=".4"/>
  <polygon points="87.269 101.601 89.829 100.323 89.829 102.884 87.269 101.601"/>
  <polyline points="132.408 160.265 112.253 160.265 112.253 116.882 88.756 116.882" fill="none" stroke="#000" stroke-linecap="square" stroke-width=".4"/>
  <polygon points="70.718 95.685 71.996 93.125 69.435 93.125 70.718 95.685"/>
  <polygon points="45.669 77.203 48.229 78.481 48.229 75.92 45.669 77.203"/>
  <polyline points="70.713 93.703 70.713 77.2 48.229 77.2" fill="none" stroke="#000" stroke-linecap="square" stroke-width=".4"/>
  <rect x="13.029" y="128.4" width="32" height="19.2" fill="#d0d9ee" stroke="#000" stroke-linecap="square" stroke-miterlimit="10" stroke-width=".8"/>
  <text transform="translate(15.645 139.996)" font-family="ArialMT, Arial" font-size="5.6"><tspan x="0" y="0">QSPI flash</tspan></text>
  <text transform="translate(50.788 136.156)" font-family="ArialMT, Arial" font-size="5.6"><tspan x="0" y="0">QSPI</tspan></text>
  <polygon points="70.718 122.64 71.996 125.2 69.435 125.2 70.718 122.64"/>
  <polygon points="45.669 137.997 48.229 136.719 48.229 139.28 45.669 137.997"/>
  <polyline points="70.713 124.621 70.713 138 48.229 138" fill="none" stroke="#000" stroke-linecap="square" stroke-width=".4"/>
  <polygon points="87.269 116.877 89.829 115.599 89.829 118.16 87.269 116.877"/>
  <polyline points="246.634 143.44 246.634 214.756 253.676 214.756" fill="none" stroke="#000" stroke-linecap="square" stroke-width=".4"/>
  <polygon points="246.639 142.675 247.917 145.235 245.356 145.235 246.639 142.675"/>
  <polygon points="255.596 214.803 253.036 216.081 253.036 213.52 255.596 214.803"/>
  <polygon points="346.4 211.602 348.96 212.88 348.96 210.319 346.4 211.602"/>
  <text transform="translate(350.24 219.906)" font-family="ArialMT, Arial" font-size="5.6"><tspan x="0" y="0">Ethernet</tspan></text>
  <g>
    <polygon points="399.596 152.078 397.036 150.8 397.036 153.361 399.596 152.078"/>
    <polyline points="398.316 152.078 377.723 152.078 377.723 221.118 347.518 221.118" fill="none" stroke="#000" stroke-linecap="square" stroke-width=".4"/>
  </g>
  <polygon points="346.4 221.202 348.96 222.48 348.96 219.919 346.4 221.202"/>
  <polygon points="436.076 152.082 438.636 153.36 438.636 150.799 436.076 152.082"/>
  <g>
    <polygon points="569.196 110.478 566.636 109.2 566.636 111.761 569.196 110.478"/>
    <polyline points="567.916 110.478 534.728 110.478 534.728 128.239 492.66 128.239" fill="none" stroke="#000" stroke-linecap="square" stroke-width=".4"/>
  </g>
  <polygon points="490.536 128.309 493.097 129.587 493.097 127.026 490.536 128.309"/>
  <rect x="501.576" y="163.469" width="38.399" height="16" fill="#d0d9ee" stroke="#000" stroke-linecap="square" stroke-miterlimit="10" stroke-width=".8"/>
  <rect x="501.576" y="144.27" width="38.399" height="16" fill="#d0d9ee" stroke="#000" stroke-linecap="square" stroke-miterlimit="10" stroke-width=".8"/>
  <text transform="translate(482.795 169.515)" font-family="ArialMT, Arial" font-size="5.6"><tspan x="0" y="0">UART</tspan></text>
  <text transform="translate(563.75 186.93)" font-family="ArialMT, Arial" font-size="5.6"><tspan x="0" y="0">USB</tspan></text>
  <text transform="translate(504.439 169.869)" font-family="ArialMT, Arial" font-size="5.6"><tspan x="0" y="0">Virtual comm</tspan><tspan x="5.598" y="6.72">interface</tspan></text>
  <text transform="translate(504.439 151.137)" font-family="ArialMT, Arial" font-size="5.6"><tspan x="0" y="0">Virtual comm</tspan><tspan x="5.598" y="6.72">interface</tspan></text>
  <text transform="translate(583.153 204.56)" font-family="ArialMT, Arial" font-size="5.6"><tspan x="0" y="0">Serial terminal for</tspan><tspan x="4.665" y="6.72">log messages</tspan></text>
  <g>
    <polygon points="591.715 188.483 589.155 189.761 589.155 187.2 591.715 188.483"/>
    <line x1="590.435" y1="188.483" x2="560.173" y2="188.483" fill="none" stroke="#000" stroke-linecap="square" stroke-width=".4"/>
  </g>
  <g>
    <polygon points="500.936 171.466 498.376 170.188 498.376 172.749 500.936 171.466"/>
    <line x1="499.656" y1="171.466" x2="477.024" y2="171.466" fill="none" stroke="#000" stroke-linecap="square" stroke-width=".4"/>
  </g>
  <g>
    <polygon points="540.246 171.259 542.806 172.537 542.806 169.976 540.246 171.259"/>
    <line x1="541.526" y1="171.259" x2="560.173" y2="171.259" fill="none" stroke="#000" stroke-linecap="square" stroke-width=".4"/>
  </g>
  <line x1="560.173" y1="188.481" x2="560.173" y2="171.274" fill="none" stroke="#000" stroke-linecap="square" stroke-width=".4"/>
  <circle cx="428.334" cy="249.858" r="9.793" fill="none" stroke="#000" stroke-linecap="square" stroke-miterlimit="10" stroke-width=".8"/>
  <g>
    <path d="M430.601,246.476c0-1.217-.987-2.204-2.204-2.204s-2.204.987-2.204,2.204v1.946h1.013v-1.946c0-.658.533-1.191,1.191-1.191s1.191.533,1.191,1.191v1.946h1.013v-1.946Z" fill="#a7bae0" stroke="#000" stroke-width=".4"/>
    <rect x="425.212" y="248.422" width="6.37" height="5.987" fill="#a7bae0" stroke="#000" stroke-width=".56"/>
    <path d="M428.771,251.07c.144-.112.237-.287.237-.484,0-.338-.274-.611-.611-.611s-.611.274-.611.611c0,.228.125.428.311.533l-.151,1.738h.983l-.157-1.787Z"/>
  </g>
  <rect x="473.836" y="211.569" width="63.999" height="57.631" fill="#e8ecf7" stroke="#000" stroke-linecap="square" stroke-miterlimit="10" stroke-width=".8"/>
  <rect x="480.236" y="230.801" width="51.199" height="31.999" fill="#a7bae0" stroke="#000" stroke-linecap="square" stroke-miterlimit="10" stroke-width=".8"/>
  <text transform="translate(491.525 219.28)" font-size="5.6"><tspan font-family="Arial-BoldMT, Arial" font-weight="700"><tspan x="0" y="0">NFC board</tspan></tspan><tspan font-family="ArialMT, Arial"><tspan x="-5.145" y="6.72">CLEV6630ARD</tspan></tspan></text>
  <text transform="translate(489.028 248.08)" font-family="ArialMT, Arial" font-size="5.6"><tspan x="0" y="0">NFC frontend</tspan></text>
  <text transform="translate(507.884 206.251)" font-family="ArialMT, Arial" font-size="5.6"><tspan x="0" y="0">SPI</tspan></text>
  <polygon points="505.833 211.143 504.555 208.583 507.116 208.583 505.833 211.143"/>
  <polyline points="429.038 209.649 429.038 198.583 464.236 198.583 464.236 143.76" fill="none" stroke="#000" stroke-linecap="square" stroke-width=".4"/>
  <polyline points="505.838 209.649 505.838 198.583 470.636 198.583 470.636 143.986" fill="none" stroke="#000" stroke-linecap="square" stroke-width=".4"/>
  <text transform="translate(554.974 59.019)" font-family="ArialMT, Arial" font-size="5.6"><tspan x="0" y="0">TLS</tspan><tspan x="-3.889" y="6.72">TCP/IP</tspan></text>
  <text transform="translate(608.862 61.84)" font-family="ArialMT, Arial" font-size="5.6"><tspan x="0" y="0">TLS</tspan><tspan x="-3.889" y="6.72">TCP/IP</tspan></text>
  <path d="M581.632,32.729c-3.789,1.179-6.598,4.726-6.598,8.904,0,5.141,4.168,9.309,9.309,9.309l22.159.051c4.64,0,8.402-3.762,8.402-8.402,0-2.807-1.376-5.292-3.491-6.818.101-.494.158-1.06.158-1.584,0-4.188-3.395-7.582-7.582-7.582-1.05,0-2.08.236-2.99.623-1.987-2.55-5.087-4.191-8.57-4.191-5.602,0-10.213,4.242-10.796,9.69Z" fill="none" stroke="#000" stroke-miterlimit="10" stroke-width="1.6"/>
  <g>
    <rect x="595.14" y="142.624" width="22.056" height="17.461"/>
    <rect x="596.763" y="144.425" width="18.81" height="13.858" fill="#fff"/>
    <rect x="599.452" y="161.049" width="13.359" height=".631"/>
    <rect x="601.878" y="160.085" width="8.64" height=".964"/>
  </g>
  <g>
    <rect x="595.14" y="179.6" width="22.056" height="17.461"/>
    <rect x="596.763" y="181.401" width="18.81" height="13.858" fill="#fff"/>
    <rect x="599.452" y="198.025" width="13.359" height=".631"/>
    <rect x="601.878" y="197.061" width="8.64" height=".964"/>
  </g>
  <polyline points="192.384 137.906 192.384 96.33 185.964 96.33" fill="none" stroke="#000" stroke-linecap="square" stroke-width=".4"/>
  <polygon points="192.379 139.661 191.101 137.101 193.662 137.101 192.379 139.661"/>
  <polyline points="192.384 143.357 192.384 157.469 186.249 157.469" fill="none" stroke="#000" stroke-linecap="square" stroke-width=".4"/>
  <polygon points="192.379 142.675 191.101 145.235 193.662 145.235 192.379 142.675"/>
  <path d="M192.383,142.448c.707,0,1.28-.573,1.28-1.28,0-.708-.573-1.28-1.28-1.28s-1.28.572-1.28,1.28c0,.706.573,1.28,1.28,1.28Z" fill="none" stroke="#000" stroke-width=".4"/>
  <g>
    <polyline points="558.686 246.597 550.221 252.336 545.921 245.973 557.559 238.083 561.86 244.445 560.662 245.257" fill="none" stroke="#000" stroke-linecap="round" stroke-linejoin="round" stroke-width=".64"/>
    <path d="M551.697,248.049c.342-1.312,1.535-2.281,2.954-2.281.159,0,.315.012.468.036" fill="none" stroke="#000" stroke-linecap="round" stroke-linejoin="round" stroke-width=".64"/>
    <path d="M549.883,247.656c.505-2.157,2.441-3.763,4.752-3.763.154,0,.306.007.457.021" fill="none" stroke="#000" stroke-linecap="round" stroke-linejoin="round" stroke-width=".64"/>
    <path d="M561.871,244.497c-.254,1.174-1.311.743-1.311.743l-1.269-1.861c-.197-.249-.502-.409-.844-.409-.594,0-1.076.482-1.076,1.076,0,.262.094.502.249.689,0,0,1.727,3.224,2.783,4.202s2.328,2.23,2.72,2.817l3.228-2.25s-1.35-1.917-1.8-3.717c0,0-.235-2.035-1.33-2.837s-3.541-2.974-4.03-2.602" fill="none" stroke="#000" stroke-linecap="round" stroke-linejoin="round" stroke-width=".64"/>
  </g>
  <g>
    <path d="M217.284,87.337s-.379-.246-.758-.246c0,0-.441-.072-.482.338,0,0-.113.471.389.471,0,0,.297.02.656-.082" stroke="#000" stroke-miterlimit="10" stroke-width=".64"/>
    <path d="M216.31,89.443s-.078.196,1.891,1.004c0,0,.339.261.339.496,0,0,.13.9-.965.6,0,0-.926-.274-1.5-.535" fill="none" stroke="#000" stroke-miterlimit="10" stroke-width=".64"/>
    <path d="M216.518,94.621s-.078.743.287.743h1.448s.457.039.457-.548" fill="none" stroke="#000" stroke-miterlimit="10" stroke-width=".64"/>
    <path d="M221.918,94.588h4.787s1.115.098,1.115-1.33v-3.189s.007-.652-.43-1.154c-.372-.428-.411-.372-.626-.88s-.293-1.507-1.409-3.013c0,0-.215-.293-1.154-.293h-2.283s-1.343,0-2.283,0-1.154.293-1.154.293c-1.115,1.507-1.193,2.504-1.409,3.013s-.254.452-.626.88c-.437.502-.43,1.154-.43,1.154v3.189c0,1.428,1.115,1.33,1.115,1.33h4.787Z" fill="none" stroke="#000" stroke-miterlimit="10" stroke-width=".64"/>
    <path d="M226.653,87.89s-1.083.378-2.061.378-2.674,0-2.674,0h-2.674c-.978,0-2.061-.378-2.061-.378" fill="none" stroke="#000" stroke-miterlimit="10" stroke-width=".64"/>
    <path d="M226.553,87.337s.379-.246.758-.246c0,0,.441-.072.482.338,0,0,.113.471-.389.471,0,0-.297.02-.656-.082" stroke="#000" stroke-miterlimit="10" stroke-width=".64"/>
    <path d="M227.527,89.443s.078.196-1.891,1.004c0,0-.339.261-.339.496,0,0-.13.9.965.6,0,0,.926-.274,1.5-.535" fill="none" stroke="#000" stroke-miterlimit="10" stroke-width=".64"/>
    <path d="M221.997,92.586c1.083,0,1.291-.274,1.291-.274l.522-.561c.261-.457-.339-.457-.339-.457h-1.565s-1.539,0-1.539,0c0,0-.6,0-.339.457l.522.561s.209.274,1.291.274h.157Z" fill="none" stroke="#000" stroke-miterlimit="10" stroke-width=".64"/>
    <path d="M227.318,94.621s.078.743-.287.743h-1.448s-.457.039-.457-.548" fill="none" stroke="#000" stroke-miterlimit="10" stroke-width=".64"/>
    <path d="M221.332,97.921v1.226h.835s1.265.052,1.265-1.226c0-1.265-1.265-1.226-1.265-1.226h-.835v1.226" fill="none" stroke="#000" stroke-miterlimit="10" stroke-width=".64"/>
    <line x1="221.345" y1="97.151" x2="219.884" y2="97.151" fill="none" stroke="#000" stroke-miterlimit="10" stroke-width=".64"/>
    <line x1="221.345" y1="98.756" x2="219.884" y2="98.756" fill="none" stroke="#000" stroke-miterlimit="10" stroke-width=".64"/>
    <polyline points="223.562 97.921 229.288 97.921 229.288 91.712 227.905 91.712" fill="none" stroke="#000" stroke-miterlimit="10" stroke-width=".64"/>
  </g>
  <g>
    <polyline points="216.916 73.067 216.916 71.971 222.551 71.971" fill="none" stroke="#000" stroke-miterlimit="10" stroke-width=".64"/>
    <polygon points="222.551 63.734 223.862 65.436 224.664 73.262 227.149 79.269 222.551 77.312 217.953 79.269 220.438 73.262 221.24 65.436 222.551 63.734" fill="none" stroke="#000" stroke-miterlimit="10" stroke-width=".64"/>
    <polyline points="228.186 73.067 228.186 71.971 222.551 71.971" fill="none" stroke="#000" stroke-miterlimit="10" stroke-width=".64"/>
    <polyline points="228.458 71.926 224.351 70.23 220.751 70.23 216.644 71.926" fill="none" stroke="#000" stroke-miterlimit="10" stroke-width=".64"/>
    <polyline points="216.916 69.212 216.916 68.117 222.551 68.117" fill="none" stroke="#000" stroke-miterlimit="10" stroke-width=".64"/>
    <polyline points="228.186 69.212 228.186 68.117 222.551 68.117" fill="none" stroke="#000" stroke-miterlimit="10" stroke-width=".64"/>
    <polyline points="228.458 68.071 224.351 66.375 220.751 66.375 216.644 68.071" fill="none" stroke="#000" stroke-miterlimit="10" stroke-width=".64"/>
    <polyline points="222.551 77.312 219.421 75.845 224.586 73.321" fill="none" stroke="#000" stroke-linecap="round" stroke-linejoin="round" stroke-width=".64"/>
    <polyline points="222.551 77.312 225.682 75.845 220.516 73.321" fill="none" stroke="#000" stroke-linecap="round" stroke-linejoin="round" stroke-width=".64"/>
  </g>
  <line x1="191.212" y1="141.163" x2="193.634" y2="141.163" fill="none" stroke="#000" stroke-miterlimit="10" stroke-width=".25"/>
  <line x1="192.383" y1="140.024" x2="192.383" y2="142.335" fill="none" stroke="#000" stroke-miterlimit="10" stroke-width=".25"/>
  <path d="M246.64,142.445c.707,0,1.28-.573,1.28-1.28,0-.708-.573-1.28-1.28-1.28s-1.28.572-1.28,1.28c0,.706.573,1.28,1.28,1.28Z" fill="none" stroke="#000" stroke-width=".4"/>
  <line x1="245.469" y1="141.16" x2="247.891" y2="141.16" fill="none" stroke="#000" stroke-miterlimit="10" stroke-width=".25"/>
  <line x1="246.64" y1="140.021" x2="246.64" y2="142.332" fill="none" stroke="#000" stroke-miterlimit="10" stroke-width=".25"/>
</svg>