<svg width="4966" height="2303" xmlns="http://www.w3.org/2000/svg" xmlns:xlink="http://www.w3.org/1999/xlink" xml:space="preserve" overflow="hidden"><g transform="translate(422 -27)"><path d="M1646.5 420.507C1646.5 210.083 1817.08 39.5 2027.51 39.5L4158.49 39.5C4368.92 39.5 4539.5 210.083 4539.5 420.507L4539.5 1944.49C4539.5 2154.92 4368.92 2325.5 4158.49 2325.5L2027.51 2325.5C1817.08 2325.5 1646.5 2154.92 1646.5 1944.49Z" stroke="#000000" stroke-width="9.16667" stroke-linejoin="round" stroke-miterlimit="10" fill="#FFFFFF" fill-rule="evenodd"/><path d="M-417.5 770.506C-417.5 640.163-311.837 534.5-181.495 534.5L1130.49 534.5C1260.84 534.5 1366.5 640.163 1366.5 770.506L1366.5 1714.49C1366.5 1844.84 1260.84 1950.5 1130.49 1950.5L-181.495 1950.5C-311.837 1950.5-417.5 1844.84-417.5 1714.49Z" stroke="#000000" stroke-width="9.16667" stroke-linejoin="round" stroke-miterlimit="10" fill="#FFFFFF" fill-rule="evenodd"/><path d="M669.5 958.5-338.5 958.5-338.5 1760.5 669.5 1760.5 669.5 958.5 669.5 958.5" stroke="#090909" stroke-width="6.54984" stroke-linejoin="bevel" stroke-miterlimit="10" fill="#E1EBF8" fill-rule="evenodd"/><path d="M3762.5 728.5 2503.5 728.5 2503.5 1657.5 3762.5 1657.5 3762.5 728.5 3762.5 728.5" stroke="#090909" stroke-width="6.54984" stroke-linejoin="bevel" stroke-miterlimit="10" fill="#E1EBF8" fill-rule="evenodd"/><path d="M3044.5 837.5 2782.5 837.5 2782.5 968.5 3044.5 968.5 3044.5 837.5 3044.5 837.5" stroke="#000000" stroke-width="6.54984" stroke-linejoin="bevel" stroke-miterlimit="10" fill="#C6DBF2" fill-rule="evenodd"/><path d="M3700.5 837.5 3385.5 837.5 3385.5 968.5 3700.5 968.5 3700.5 837.5 3700.5 837.5" stroke="#000000" stroke-width="6.54984" stroke-linejoin="bevel" stroke-miterlimit="10" fill="#C6DBF2" fill-rule="evenodd"/><path d="M2965.5 1467.5 2703.5 1467.5 2703.5 1598.5 2965.5 1598.5 2965.5 1467.5 2965.5 1467.5" stroke="#000000" stroke-width="6.54984" stroke-linejoin="bevel" stroke-miterlimit="10" fill="#C6DBF2" fill-rule="evenodd"/><path d="M3321.5 1126.5 3044.5 1126.5 3044.5 1310.5 3321.5 1310.5 3321.5 1126.5 3321.5 1126.5" stroke="#000000" stroke-width="6.54984" stroke-linecap="square" stroke-linejoin="bevel" stroke-miterlimit="10" fill="#82B3DF" fill-rule="evenodd"/><text fill="#090909" font-family="Arial,Arial_MSFontService,sans-serif" font-weight="400" font-size="44" transform="matrix(1 0 0 1 3125.92 1211)">H</text><text fill="#090909" font-family="Arial,Arial_MSFontService,sans-serif" font-weight="400" font-size="44" transform="matrix(1 0 0 1 3160.01 1211)">o</text><text fill="#090909" font-family="Arial,Arial_MSFontService,sans-serif" font-weight="400" font-size="44" transform="matrix(1 0 0 1 3187.55 1211)">s</text><text fill="#090909" font-family="Arial,Arial_MSFontService,sans-serif" font-weight="400" font-size="44" transform="matrix(1 0 0 1 3211.15 1211)">t</text><text fill="#090909" font-family="Arial,Arial_MSFontService,sans-serif" font-weight="400" font-size="44" transform="matrix(1 0 0 1 3076.1 1266)">c</text><text fill="#090909" font-family="Arial,Arial_MSFontService,sans-serif" font-weight="400" font-size="44" transform="matrix(1 0 0 1 3101.01 1266)">o</text><text fill="#090909" font-family="Arial,Arial_MSFontService,sans-serif" font-weight="400" font-size="44" transform="matrix(1 0 0 1 3127.23 1266)">n</text><text fill="#090909" font-family="Arial,Arial_MSFontService,sans-serif" font-weight="400" font-size="44" transform="matrix(1 0 0 1 3153.46 1266)">t</text><text fill="#090909" font-family="Arial,Arial_MSFontService,sans-serif" font-weight="400" font-size="44" transform="matrix(1 0 0 1 3166.57 1266)">r</text><text fill="#090909" font-family="Arial,Arial_MSFontService,sans-serif" font-weight="400" font-size="44" transform="matrix(1 0 0 1 3183.62 1266)">o</text><text fill="#090909" font-family="Arial,Arial_MSFontService,sans-serif" font-weight="400" font-size="44" transform="matrix(1 0 0 1 3209.84 1266)">l</text><text fill="#090909" font-family="Arial,Arial_MSFontService,sans-serif" font-weight="400" font-size="44" transform="matrix(1 0 0 1 3220.33 1266)">l</text><text fill="#090909" font-family="Arial,Arial_MSFontService,sans-serif" font-weight="400" font-size="44" transform="matrix(1 0 0 1 3232.13 1266)">e</text><text fill="#090909" font-family="Arial,Arial_MSFontService,sans-serif" font-weight="400" font-size="44" transform="matrix(1 0 0 1 3258.36 1266)">r</text><text fill="#090909" font-family="Arial,Arial_MSFontService,sans-serif" font-weight="400" font-size="44" transform="matrix(1 0 0 1 3452.42 895)">E</text><text fill="#090909" font-family="Arial,Arial_MSFontService,sans-serif" font-weight="400" font-size="44" transform="matrix(1 0 0 1 3482.58 895)">t</text><text fill="#090909" font-family="Arial,Arial_MSFontService,sans-serif" font-weight="400" font-size="44" transform="matrix(1 0 0 1 3495.69 895)">h</text><text fill="#090909" font-family="Arial,Arial_MSFontService,sans-serif" font-weight="400" font-size="44" transform="matrix(1 0 0 1 3523.23 895)">e</text><text fill="#090909" font-family="Arial,Arial_MSFontService,sans-serif" font-weight="400" font-size="44" transform="matrix(1 0 0 1 3549.45 895)">r</text><text fill="#090909" font-family="Arial,Arial_MSFontService,sans-serif" font-weight="400" font-size="44" transform="matrix(1 0 0 1 3566.5 895)">n</text><text fill="#090909" font-family="Arial,Arial_MSFontService,sans-serif" font-weight="400" font-size="44" transform="matrix(1 0 0 1 3592.72 895)">e</text><text fill="#090909" font-family="Arial,Arial_MSFontService,sans-serif" font-weight="400" font-size="44" transform="matrix(1 0 0 1 3617.63 895)">t</text><text fill="#090909" font-family="Arial,Arial_MSFontService,sans-serif" font-weight="400" font-size="44" transform="matrix(1 0 0 1 3493.07 950)">P</text><text fill="#090909" font-family="Arial,Arial_MSFontService,sans-serif" font-weight="400" font-size="44" transform="matrix(1 0 0 1 3524.54 950)">H</text><text fill="#090909" font-family="Arial,Arial_MSFontService,sans-serif" font-weight="400" font-size="44" transform="matrix(1 0 0 1 3558.63 950)">Y</text><text fill="#090909" font-family="Arial,Arial_MSFontService,sans-serif" font-weight="400" font-size="44" transform="matrix(1 0 0 1 3266.22 1065)">R</text><text fill="#090909" font-family="Arial,Arial_MSFontService,sans-serif" font-weight="400" font-size="44" transform="matrix(1 0 0 1 3300.32 1065)">M</text><text fill="#090909" font-family="Arial,Arial_MSFontService,sans-serif" font-weight="400" font-size="44" transform="matrix(1 0 0 1 3339.65 1065)">I</text><text fill="#090909" font-family="Arial,Arial_MSFontService,sans-serif" font-weight="400" font-size="44" transform="matrix(1 0 0 1 3352.77 1065)">I</text><text fill="#090909" font-family="Arial,Arial_MSFontService,sans-serif" font-weight="400" font-size="44" transform="matrix(1 0 0 1 2859.74 1065)">1</text><text fill="#090909" font-family="Arial,Arial_MSFontService,sans-serif" font-weight="400" font-size="44" transform="matrix(1 0 0 1 2884.66 1065)">6</text><text fill="#090909" font-family="Arial,Arial_MSFontService,sans-serif" font-weight="400" font-size="44" transform="matrix(1 0 0 1 2912.19 1065)">-</text><text fill="#090909" font-family="Arial,Arial_MSFontService,sans-serif" font-weight="400" font-size="44" transform="matrix(1 0 0 1 2929.24 1065)">b</text><text fill="#090909" font-family="Arial,Arial_MSFontService,sans-serif" font-weight="400" font-size="44" transform="matrix(1 0 0 1 2955.46 1065)">i</text><text fill="#090909" font-family="Arial,Arial_MSFontService,sans-serif" font-weight="400" font-size="44" transform="matrix(1 0 0 1 2967.26 1065)">t</text><text fill="#090909" font-family="Arial,Arial_MSFontService,sans-serif" font-weight="400" font-size="44" transform="matrix(1 0 0 1 2992.18 1065)">d</text><text fill="#090909" font-family="Arial,Arial_MSFontService,sans-serif" font-weight="400" font-size="44" transform="matrix(1 0 0 1 3018.4 1065)">a</text><text fill="#090909" font-family="Arial,Arial_MSFontService,sans-serif" font-weight="400" font-size="44" transform="matrix(1 0 0 1 3044.63 1065)">t</text><text fill="#090909" font-family="Arial,Arial_MSFontService,sans-serif" font-weight="400" font-size="44" transform="matrix(1 0 0 1 3059.05 1065)">a</text><text fill="#090909" font-family="Arial,Arial_MSFontService,sans-serif" font-weight="400" font-size="44" transform="matrix(1 0 0 1 2826.96 926)">S</text><text fill="#090909" font-family="Arial,Arial_MSFontService,sans-serif" font-weight="400" font-size="44" transform="matrix(1 0 0 1 2858.43 926)">D</text><text fill="#090909" font-family="Arial,Arial_MSFontService,sans-serif" font-weight="400" font-size="44" transform="matrix(1 0 0 1 2892.52 926)">R</text><text fill="#090909" font-family="Arial,Arial_MSFontService,sans-serif" font-weight="400" font-size="44" transform="matrix(1 0 0 1 2929.24 926)">A</text><text fill="#090909" font-family="Arial,Arial_MSFontService,sans-serif" font-weight="400" font-size="44" transform="matrix(1 0 0 1 2960.71 926)">M</text><text fill="#090909" font-family="Arial,Arial_MSFontService,sans-serif" font-weight="400" font-size="44" transform="matrix(1 0 0 1 3216.4 652)">I</text><text fill="#090909" font-family="Arial,Arial_MSFontService,sans-serif" font-weight="400" font-size="36" transform="matrix(1 0 0 1 3230.82 630)">2</text><text fill="#090909" font-family="Arial,Arial_MSFontService,sans-serif" font-weight="400" font-size="44" transform="matrix(1 0 0 1 3253.11 652)">C</text><text fill="#090909" font-family="Arial,Arial_MSFontService,sans-serif" font-weight="400" font-size="44" transform="matrix(1 0 0 1 3299.01 652)">t</text><text fill="#090909" font-family="Arial,Arial_MSFontService,sans-serif" font-weight="400" font-size="44" transform="matrix(1 0 0 1 3312.12 652)">o</text><text fill="#090909" font-family="Arial,Arial_MSFontService,sans-serif" font-weight="400" font-size="44" transform="matrix(1 0 0 1 3338.34 652)">u</text><text fill="#090909" font-family="Arial,Arial_MSFontService,sans-serif" font-weight="400" font-size="44" transform="matrix(1 0 0 1 3365.88 652)">c</text><text fill="#090909" font-family="Arial,Arial_MSFontService,sans-serif" font-weight="400" font-size="44" transform="matrix(1 0 0 1 3389.48 652)">h</text><text fill="#090909" font-family="Arial,Arial_MSFontService,sans-serif" font-weight="400" font-size="44" transform="matrix(1 0 0 1 3216.4 707)">i</text><text fill="#090909" font-family="Arial,Arial_MSFontService,sans-serif" font-weight="400" font-size="44" transform="matrix(1 0 0 1 3228.2 707)">n</text><text fill="#090909" font-family="Arial,Arial_MSFontService,sans-serif" font-weight="400" font-size="44" transform="matrix(1 0 0 1 3254.42 707)">t</text><text fill="#090909" font-family="Arial,Arial_MSFontService,sans-serif" font-weight="400" font-size="44" transform="matrix(1 0 0 1 3267.54 707)">e</text><text fill="#090909" font-family="Arial,Arial_MSFontService,sans-serif" font-weight="400" font-size="44" transform="matrix(1 0 0 1 3293.76 707)">r</text><text fill="#090909" font-family="Arial,Arial_MSFontService,sans-serif" font-weight="400" font-size="44" transform="matrix(1 0 0 1 3310.81 707)">f</text><text fill="#090909" font-family="Arial,Arial_MSFontService,sans-serif" font-weight="400" font-size="44" transform="matrix(1 0 0 1 3325.23 707)">a</text><text fill="#090909" font-family="Arial,Arial_MSFontService,sans-serif" font-weight="400" font-size="44" transform="matrix(1 0 0 1 3351.45 707)">c</text><text fill="#090909" font-family="Arial,Arial_MSFontService,sans-serif" font-weight="400" font-size="44" transform="matrix(1 0 0 1 3375.06 707)">e</text><text fill="#090909" font-family="Arial,Arial_MSFontService,sans-serif" font-weight="400" font-size="44" transform="matrix(1 0 0 1 2903.01 652)">1</text><text fill="#090909" font-family="Arial,Arial_MSFontService,sans-serif" font-weight="400" font-size="44" transform="matrix(1 0 0 1 2927.93 652)">6</text><text fill="#090909" font-family="Arial,Arial_MSFontService,sans-serif" font-weight="400" font-size="44" transform="matrix(1 0 0 1 2955.46 652)">-</text><text fill="#090909" font-family="Arial,Arial_MSFontService,sans-serif" font-weight="400" font-size="44" transform="matrix(1 0 0 1 2972.51 652)">b</text><text fill="#090909" font-family="Arial,Arial_MSFontService,sans-serif" font-weight="400" font-size="44" transform="matrix(1 0 0 1 2998.73 652)">i</text><text fill="#090909" font-family="Arial,Arial_MSFontService,sans-serif" font-weight="400" font-size="44" transform="matrix(1 0 0 1 3010.53 652)">t</text><text fill="#090909" font-family="Arial,Arial_MSFontService,sans-serif" font-weight="400" font-size="44" transform="matrix(1 0 0 1 3035.45 652)">d</text><text fill="#090909" font-family="Arial,Arial_MSFontService,sans-serif" font-weight="400" font-size="44" transform="matrix(1 0 0 1 3061.67 652)">a</text><text fill="#090909" font-family="Arial,Arial_MSFontService,sans-serif" font-weight="400" font-size="44" transform="matrix(1 0 0 1 3087.9 652)">t</text><text fill="#090909" font-family="Arial,Arial_MSFontService,sans-serif" font-weight="400" font-size="44" transform="matrix(1 0 0 1 3102.32 652)">a</text><text fill="#090909" font-family="Arial,Arial_MSFontService,sans-serif" font-weight="400" font-size="44" transform="matrix(1 0 0 1 2783.69 707)">d</text><text fill="#090909" font-family="Arial,Arial_MSFontService,sans-serif" font-weight="400" font-size="44" transform="matrix(1 0 0 1 2809.92 707)">i</text><text fill="#090909" font-family="Arial,Arial_MSFontService,sans-serif" font-weight="400" font-size="44" transform="matrix(1 0 0 1 2820.41 707)">s</text><text fill="#090909" font-family="Arial,Arial_MSFontService,sans-serif" font-weight="400" font-size="44" transform="matrix(1 0 0 1 2844.01 707)">p</text><text fill="#090909" font-family="Arial,Arial_MSFontService,sans-serif" font-weight="400" font-size="44" transform="matrix(1 0 0 1 2871.54 707)">l</text><text fill="#090909" font-family="Arial,Arial_MSFontService,sans-serif" font-weight="400" font-size="44" transform="matrix(1 0 0 1 2882.03 707)">a</text><text fill="#090909" font-family="Arial,Arial_MSFontService,sans-serif" font-weight="400" font-size="44" transform="matrix(1 0 0 1 2906.95 707)">y</text><text fill="#090909" font-family="Arial,Arial_MSFontService,sans-serif" font-weight="400" font-size="44" transform="matrix(1 0 0 1 2943.66 707)">i</text><text fill="#090909" font-family="Arial,Arial_MSFontService,sans-serif" font-weight="400" font-size="44" transform="matrix(1 0 0 1 2954.15 707)">n</text><text fill="#090909" font-family="Arial,Arial_MSFontService,sans-serif" font-weight="400" font-size="44" transform="matrix(1 0 0 1 2980.38 707)">t</text><text fill="#090909" font-family="Arial,Arial_MSFontService,sans-serif" font-weight="400" font-size="44" transform="matrix(1 0 0 1 2993.49 707)">e</text><text fill="#090909" font-family="Arial,Arial_MSFontService,sans-serif" font-weight="400" font-size="44" transform="matrix(1 0 0 1 3019.71 707)">r</text><text fill="#090909" font-family="Arial,Arial_MSFontService,sans-serif" font-weight="400" font-size="44" transform="matrix(1 0 0 1 3038.07 707)">f</text><text fill="#090909" font-family="Arial,Arial_MSFontService,sans-serif" font-weight="400" font-size="44" transform="matrix(1 0 0 1 3051.18 707)">a</text><text fill="#090909" font-family="Arial,Arial_MSFontService,sans-serif" font-weight="400" font-size="44" transform="matrix(1 0 0 1 3077.41 707)">c</text><text fill="#090909" font-family="Arial,Arial_MSFontService,sans-serif" font-weight="400" font-size="44" transform="matrix(1 0 0 1 3102.32 707)">e</text><text fill="#090909" font-family="Arial,Arial_MSFontService,sans-serif" font-weight="400" font-size="44" transform="matrix(1 0 0 1 2778.45 1529)">Q</text><text fill="#090909" font-family="Arial,Arial_MSFontService,sans-serif" font-weight="400" font-size="44" transform="matrix(1 0 0 1 2815.16 1529)">S</text><text fill="#090909" font-family="Arial,Arial_MSFontService,sans-serif" font-weight="400" font-size="44" transform="matrix(1 0 0 1 2846.63 1529)">P</text><text fill="#090909" font-family="Arial,Arial_MSFontService,sans-serif" font-weight="400" font-size="44" transform="matrix(1 0 0 1 2876.79 1529)">I</text><text fill="#090909" font-family="Arial,Arial_MSFontService,sans-serif" font-weight="400" font-size="44" transform="matrix(1 0 0 1 2783.69 1585)">f</text><text fill="#090909" font-family="Arial,Arial_MSFontService,sans-serif" font-weight="400" font-size="44" transform="matrix(1 0 0 1 2798.11 1585)">l</text><text fill="#090909" font-family="Arial,Arial_MSFontService,sans-serif" font-weight="400" font-size="44" transform="matrix(1 0 0 1 2808.6 1585)">a</text><text fill="#090909" font-family="Arial,Arial_MSFontService,sans-serif" font-weight="400" font-size="44" transform="matrix(1 0 0 1 2834.83 1585)">s</text><text fill="#090909" font-family="Arial,Arial_MSFontService,sans-serif" font-weight="400" font-size="44" transform="matrix(1 0 0 1 2859.74 1585)">h</text><path d="M3096.57 1121 3107 1100 3086 1100 3096.57 1121 3096.57 1121" fill-rule="evenodd"/><path d="M3097.5 1110.5 3097.5 903.5" stroke="#000000" stroke-width="3.27474" stroke-linecap="square" stroke-miterlimit="8" fill="none" fill-rule="evenodd"/><path d="M3045 903.5 3066 914 3066 893 3045 903.5 3045 903.5" fill-rule="evenodd"/><path d="M3056.5 903.5 3097.5 903.5" stroke="#000000" stroke-width="3.27474" stroke-linecap="square" stroke-miterlimit="8" fill="none" fill-rule="evenodd"/><path d="M3385 903.427 3364 893 3364 914 3385 903.427 3385 903.427" fill-rule="evenodd"/><path d="M3374.5 903.5 3254.5 903.5" stroke="#000000" stroke-width="3.27474" stroke-linecap="square" stroke-miterlimit="8" fill="none" fill-rule="evenodd"/><path d="M3149.5 1121 3160 1100 3139 1100 3149.5 1121 3149.5 1121" fill-rule="evenodd"/><path d="M3149.5 1110.5 3149.5 560.5" stroke="#000000" stroke-width="3.27474" stroke-linecap="square" stroke-miterlimit="8" fill="none" fill-rule="evenodd"/><path d="M3201.5 1121 3212 1100 3191 1100 3201.5 1121 3201.5 1121" fill-rule="evenodd"/><path d="M3202.5 1110.5 3202.5 560.5" stroke="#000000" stroke-width="3.27474" stroke-linecap="square" stroke-miterlimit="8" fill="none" fill-rule="evenodd"/><path d="M3195.5 1762 3210 1743 3181 1743 3195.5 1762 3195.5 1762" fill-rule="evenodd"/><path d="M3195.5 1753.5 3195.5 1321.5" stroke="#000000" stroke-width="3.27474" stroke-linecap="square" stroke-miterlimit="8" fill="none" fill-rule="evenodd"/><path d="M3195.5 1310 3210 1329 3181 1329 3195.5 1310 3195.5 1310" fill-rule="evenodd"/><path d="M3254.54 1121 3265 1100 3244 1100 3254.54 1121 3254.54 1121" fill-rule="evenodd"/><path d="M3254.5 1110.5 3254.5 903.5" stroke="#000000" stroke-width="3.27474" stroke-linecap="square" stroke-miterlimit="8" fill="none" fill-rule="evenodd"/><path d="M3096.57 1312 3107 1333 3086 1333 3096.57 1312 3096.57 1312" fill-rule="evenodd"/><path d="M3097.5 1322.5 3097.5 1532.5" stroke="#000000" stroke-width="3.27474" stroke-linecap="square" stroke-miterlimit="8" fill="none" fill-rule="evenodd"/><path d="M2966 1532.5 2987 1522 2987 1543 2966 1532.5 2966 1532.5" fill-rule="evenodd"/><path d="M2977.5 1532.5 3097.5 1532.5" stroke="#000000" stroke-width="3.27474" stroke-linecap="square" stroke-miterlimit="8" fill="none" fill-rule="evenodd"/><path d="M2325.5 1012.5 1778.5 1012.5 1778.5 1812.5 2325.5 1812.5 2325.5 1012.5 2325.5 1012.5" stroke="#090909" stroke-width="6.54984" stroke-linejoin="bevel" stroke-miterlimit="10" fill="#E1EBF8" fill-rule="evenodd"/><path d="M2235.5 1369.5 1920.5 1369.5 1920.5 1532.5 2235.5 1532.5 2235.5 1369.5 2235.5 1369.5" stroke="#000000" stroke-width="6.54984" stroke-linejoin="bevel" stroke-miterlimit="10" fill="#C6DBF2" fill-rule="evenodd"/><text font-family="Arial,Arial_MSFontService,sans-serif" font-weight="400" font-size="44" transform="matrix(1 0 0 1 1975.77 1440)">HomePlug</text><text font-family="Arial,Arial_MSFontService,sans-serif" font-weight="400" font-size="44" transform="matrix(1 0 0 1 1966.03 1493)">Green PHY</text><text fill="#090909" font-family="Arial,Arial_MSFontService,sans-serif" font-weight="700" font-size="46" transform="matrix(1 0 0 1 1801.97 1631)">EasyEVSE</text><text fill="#090909" font-family="Arial,Arial_MSFontService,sans-serif" font-weight="700" font-size="46" transform="matrix(1 0 0 1 2042.02 1631)">EV </text><text fill="#090909" font-family="Arial,Arial_MSFontService,sans-serif" font-weight="700" font-size="46" transform="matrix(1 0 0 1 1801.97 1686)">Charging Signal Board</text><text fill="#090909" font-family="Arial,Arial_MSFontService,sans-serif" font-weight="400" font-size="44" transform="matrix(1 0 0 1 1801.97 1791)">EVSE</text><text fill="#090909" font-family="Arial,Arial_MSFontService,sans-serif" font-weight="400" font-size="44" transform="matrix(1 0 0 1 1918.85 1791)">-</text><text fill="#090909" font-family="Arial,Arial_MSFontService,sans-serif" font-weight="400" font-size="44" transform="matrix(1 0 0 1 1933.17 1791)">SIG</text><text fill="#090909" font-family="Arial,Arial_MSFontService,sans-serif" font-weight="400" font-size="44" transform="matrix(1 0 0 1 2008.22 1791)">-</text><text fill="#090909" font-family="Arial,Arial_MSFontService,sans-serif" font-weight="400" font-size="44" transform="matrix(1 0 0 1 2022.54 1791)">BRD2X</text><path d="M2230.5 1087.5 1916.5 1087.5 1916.5 1274.5 2230.5 1274.5 2230.5 1087.5 2230.5 1087.5" stroke="#000000" stroke-width="6.54984" stroke-linejoin="bevel" stroke-miterlimit="10" fill="#82B3DF" fill-rule="evenodd"/><text fill="#090909" font-family="Arial,Arial_MSFontService,sans-serif" font-weight="400" font-size="44" transform="matrix(1 0 0 1 1965.51 1164)">Metrology</text><text fill="#090909" font-family="Arial,Arial_MSFontService,sans-serif" font-weight="400" font-size="44" transform="matrix(1 0 0 1 2168.32 1164)">&amp;</text><text fill="#090909" font-family="Arial,Arial_MSFontService,sans-serif" font-weight="400" font-size="44" transform="matrix(1 0 0 1 1965.51 1216)">Safety</text><text fill="#090909" font-family="Arial,Arial_MSFontService,sans-serif" font-weight="400" font-size="44" transform="matrix(1 0 0 1 2100.72 1216)">MCU</text><path d="M3342.42 1247.78 3595.94 1247.78C3596.89 1247.78 3597.66 1248.55 3597.66 1249.5L3597.66 1403.41 3595.94 1401.69 3849.47 1401.69 3849.47 1405.13 3595.94 1405.13C3594.99 1405.13 3594.22 1404.36 3594.22 1403.41L3594.22 1249.5 3595.94 1251.22 3342.42 1251.22ZM3347 1263.25 3319.5 1249.5 3347 1235.75ZM3844.89 1389.66 3872.39 1403.41 3844.89 1417.16Z"/><text font-family="Arial,Arial_MSFontService,sans-serif" font-weight="400" font-size="44" transform="matrix(1 0 0 1 2978.54 1496)">QSPI</text><path d="M2324.5 212.5 1781.5 212.5 1781.5 907.5 2324.5 907.5 2324.5 212.5 2324.5 212.5" stroke="#090909" stroke-width="6.54984" stroke-linejoin="bevel" stroke-miterlimit="10" fill="#E1EBF8" fill-rule="evenodd"/><path d="M2208.5 676.5 1894.5 676.5 1894.5 859.5 2208.5 859.5 2208.5 676.5 2208.5 676.5" stroke="#000000" stroke-width="6.54984" stroke-linejoin="bevel" stroke-miterlimit="10" fill="#82B3DF" fill-rule="evenodd"/><text font-family="Arial,Arial_MSFontService,sans-serif" font-weight="400" font-size="44" transform="matrix(1 0 0 1 1955.59 757)">Metrology </text><text font-family="Arial,Arial_MSFontService,sans-serif" font-weight="400" font-size="44" transform="matrix(1 0 0 1 2001.12 810)">MCU</text><text fill="#090909" font-family="Arial,Arial_MSFontService,sans-serif" font-weight="400" font-size="44" transform="matrix(1 0 0 1 2338.47 1159)">UART</text><path d="M3016.09 1164.22 2256.42 1164.22 2256.42 1160.78 3016.09 1160.78ZM3011.51 1148.75 3039.01 1162.5 3011.51 1176.25ZM2261 1176.25 2233.5 1162.5 2261 1148.75Z"/><path d="M22.9166-1.71875 320.072-1.71875C321.021-1.71875 321.79-0.949239 321.79 0L321.79 195.164 320.072 193.445 777.763 193.445 777.763 196.883 320.072 196.883C319.122 196.883 318.353 196.113 318.353 195.164L318.353 0 320.072 1.71875 22.9166 1.71875ZM27.5 13.75 0 0 27.5-13.75ZM773.18 181.414 800.68 195.164 773.18 208.914Z" transform="matrix(1 0 0 -1 2238.5 1413.66)"/><path d="M22.9168-1.71875 403.384-1.71875C404.334-1.71875 405.103-0.949239 405.103 0L405.103 219.881 403.384 218.163 777.911 218.163 777.911 221.6 403.384 221.6C402.435 221.6 401.666 220.831 401.666 219.881L401.666 0 403.384 1.71875 22.9168 1.71875ZM27.5 13.75 0 0 27.5-13.75ZM773.327 206.131 800.827 219.881 773.327 233.631Z" transform="matrix(1 0 0 -1 2235.5 1487.38)"/><text font-family="Arial,Arial_MSFontService,sans-serif" font-weight="400" font-size="44" transform="matrix(1 0 0 1 2359.86 1395)">SPI</text><text font-family="Arial,Arial_MSFontService,sans-serif" font-weight="400" font-size="44" transform="matrix(1 0 0 1 2334 1472)">GPIOx3</text><path d="M1.71883 22.9167 1.71903 83.2229-1.71847 83.2229-1.71867 22.9167ZM-13.7499 27.5 0 0 13.7501 27.5ZM13.7503 78.6395 0.000360892 106.14-13.7497 78.6396Z" transform="matrix(-1 0 0 1 2057.5 571.5)"/><path d="M2068.22 890.417 2068.22 1058.08 2064.78 1058.08 2064.78 890.417ZM2052.75 895 2066.5 867.5 2080.25 895ZM2080.25 1053.5 2066.5 1081 2052.75 1053.5Z"/><text font-family="Arial,Arial_MSFontService,sans-serif" font-weight="400" font-size="44" transform="matrix(1 0 0 1 2111.3 982)">UART</text><path d="M1305.5 950.5 766.5 950.5 766.5 1760.5 1305.5 1760.5 1305.5 950.5 1305.5 950.5" stroke="#090909" stroke-width="6.54984" stroke-linejoin="bevel" stroke-miterlimit="10" fill="#E1EBF8" fill-rule="evenodd"/><path d="M1127.5 1400.5 813.5 1400.5 813.5 1563.5 1127.5 1563.5 1127.5 1400.5 1127.5 1400.5" stroke="#000000" stroke-width="6.54984" stroke-linejoin="bevel" stroke-miterlimit="10" fill="#C6DBF2" fill-rule="evenodd"/><text font-family="Arial,Arial_MSFontService,sans-serif" font-weight="400" font-size="44" transform="matrix(1 0 0 1 868.703 1471)">HomePlug</text><text font-family="Arial,Arial_MSFontService,sans-serif" font-weight="400" font-size="44" transform="matrix(1 0 0 1 858.963 1524)">Green PHY</text><text fill="#090909" font-family="Arial,Arial_MSFontService,sans-serif" font-weight="400" font-size="44" transform="matrix(1 0 0 1 817.434 1727)">EVSE</text><text fill="#090909" font-family="Arial,Arial_MSFontService,sans-serif" font-weight="400" font-size="44" transform="matrix(1 0 0 1 934.309 1727)">-</text><text fill="#090909" font-family="Arial,Arial_MSFontService,sans-serif" font-weight="400" font-size="44" transform="matrix(1 0 0 1 948.632 1727)">SIG</text><text fill="#090909" font-family="Arial,Arial_MSFontService,sans-serif" font-weight="400" font-size="44" transform="matrix(1 0 0 1 1023.68 1727)">-</text><text fill="#090909" font-family="Arial,Arial_MSFontService,sans-serif" font-weight="400" font-size="44" transform="matrix(1 0 0 1 1038.01 1727)">BRD2X</text><path d="M1128.5 1146.5 814.5 1146.5 814.5 1334.5 1128.5 1334.5 1128.5 1146.5 1128.5 1146.5" stroke="#000000" stroke-width="6.54984" stroke-linejoin="bevel" stroke-miterlimit="10" fill="#82B3DF" fill-rule="evenodd"/><text fill="#090909" font-family="Arial,Arial_MSFontService,sans-serif" font-weight="400" font-size="44" transform="matrix(1 0 0 1 861.969 1221)">Metrology</text><text fill="#090909" font-family="Arial,Arial_MSFontService,sans-serif" font-weight="400" font-size="44" transform="matrix(1 0 0 1 1064.78 1221)">&amp;</text><text fill="#090909" font-family="Arial,Arial_MSFontService,sans-serif" font-weight="400" font-size="44" transform="matrix(1 0 0 1 860.548 1273)">Safety</text><text fill="#090909" font-family="Arial,Arial_MSFontService,sans-serif" font-weight="400" font-size="44" transform="matrix(1 0 0 1 995.757 1273)">MCU</text><path d="M428.5 1392.78 619.118 1392.78C620.067 1392.78 620.836 1393.55 620.836 1394.5L620.836 1435.89 619.118 1434.17 786.818 1434.17 786.818 1437.61 619.118 1437.61C618.168 1437.61 617.399 1436.84 617.399 1435.89L617.399 1394.5 619.118 1396.22 428.5 1396.22ZM782.235 1422.14 809.735 1435.89 782.235 1449.64Z" fill="#001A46"/><path d="M427.5 1452.78 615.813 1452.78C616.762 1452.78 617.531 1453.55 617.531 1454.5L617.531 1518.78 615.813 1517.07 781.209 1517.07 781.209 1520.5 615.813 1520.5C614.863 1520.5 614.094 1519.73 614.094 1518.78L614.094 1454.5 615.813 1456.22 427.5 1456.22ZM776.625 1505.03 804.125 1518.78 776.625 1532.53Z" fill="#001A46"/><text font-family="Arial,Arial_MSFontService,sans-serif" font-weight="400" font-size="44" transform="matrix(1 0 0 1 442.43 1444)">GPIOx3</text><path d="M1918.02 1186.5 1918.02 1192.75C1918.02 1193.7 1917.26 1194.46 1916.31 1194.46L1823.5 1194.46 1825.22 1192.75 1825.22 1280.92 1821.78 1280.92 1821.78 1192.75C1821.78 1191.8 1822.55 1191.03 1823.5 1191.03L1916.31 1191.03 1914.59 1192.75 1914.59 1186.5ZM1837.25 1276.33 1823.5 1303.83 1809.75 1276.33Z" fill="#001A46"/><path d="M0-1.71875 33.6145-1.71875C34.5638-1.71875 35.3333-0.949239 35.3333 0L35.3333 94.9782 33.6145 93.2595 127.558 93.2595 127.558 96.697 33.6145 96.697C32.6653 96.697 31.8958 95.9275 31.8958 94.9782L31.8958 0 33.6145 1.71875 0 1.71875ZM122.974 81.2282 150.474 94.9782 122.974 108.728Z" fill="#001A46" transform="matrix(-1.83697e-16 -1 -1 1.83697e-16 1917.48 1468.97)"/><path d="M1823 1294 1823 1322M1809 1308 1837 1308" stroke="#000000" stroke-width="2.29167" stroke-linejoin="round" stroke-miterlimit="10" fill="none" fill-rule="evenodd"/><path d="M1809 1308C1809 1300.27 1815.27 1294 1823 1294 1830.73 1294 1837 1300.27 1837 1308 1837 1315.73 1830.73 1322 1823 1322 1815.27 1322 1809 1315.73 1809 1308Z" stroke="#000000" stroke-width="2.29167" stroke-linejoin="round" stroke-miterlimit="10" fill="none" fill-rule="evenodd"/><path d="M1130.5 1199.78 1248.29 1199.78C1249.24 1199.78 1250.01 1200.55 1250.01 1201.5L1250.16 1278.33 1246.73 1278.34 1246.57 1201.5 1248.29 1203.22 1130.5 1203.22ZM1262.04 1273.29 1249.21 1301.24 1234.55 1274.21Z" fill="#001A46"/><path d="M1124.78 1451.39 1124.78 1428.99C1124.78 1428.05 1125.55 1427.28 1126.5 1427.28L1248.13 1427.28 1246.41 1428.99 1246.41 1338.42 1249.85 1338.42 1249.85 1428.99C1249.85 1429.94 1249.08 1430.71 1248.13 1430.71L1126.5 1430.71 1128.22 1428.99 1128.22 1451.39ZM1234.38 1343 1248.13 1315.5 1261.88 1343Z" fill="#001A46"/><path d="M1263 1307 1236 1307M1249.5 1293 1249.5 1321" stroke="#000000" stroke-width="2.29167" stroke-linejoin="round" stroke-miterlimit="10" fill="none" fill-rule="evenodd"/><path d="M1249.5 1293C1256.96 1293 1263 1299.27 1263 1307 1263 1314.73 1256.96 1321 1249.5 1321 1242.04 1321 1236 1314.73 1236 1307 1236 1299.27 1242.04 1293 1249.5 1293Z" stroke="#000000" stroke-width="2.29167" stroke-linejoin="round" stroke-miterlimit="10" fill="none" fill-rule="evenodd"/><path d="M1786.08 1309.08 1285.92 1308.19 1285.92 1305.9 1786.08 1306.79ZM1781.52 1294.18 1809 1307.98 1781.47 1321.68ZM1290.48 1320.8 1263 1307 1290.52 1293.3Z"/><text font-family="Arial,Arial_MSFontService,sans-serif" font-weight="400" font-size="44" transform="matrix(1 0 0 1 1402.37 1293)">Control Pilot</text><path d="M149.5 1051.5-82.5 1051.5-82.5 1157.5 149.5 1157.5 149.5 1051.5 149.5 1051.5" stroke="#000000" stroke-width="6.54984" stroke-linejoin="bevel" stroke-miterlimit="10" fill="#C6DBF2" fill-rule="evenodd"/><text font-family="Arial,Arial_MSFontService,sans-serif" font-weight="400" font-size="46" transform="matrix(1 0 0 1 -50.4531 1122)">SDRAM</text><path d="M428.501 1315.5 169.5 1315.5 169.5 1484.5 428.501 1484.5 428.501 1315.5 428.501 1315.5" stroke="#000000" stroke-width="6.54984" stroke-linecap="square" stroke-linejoin="bevel" stroke-miterlimit="10" fill="#82B3DF" fill-rule="evenodd"/><text font-family="Arial,Arial_MSFontService,sans-serif" font-weight="400" font-size="41" transform="matrix(1 0 0 1 256.153 1390)">Host </text><text font-family="Arial,Arial_MSFontService,sans-serif" font-weight="400" font-size="41" transform="matrix(1 0 0 1 209.174 1440)">Controller</text><text font-family="Arial,Arial_MSFontService,sans-serif" font-weight="400" font-size="44" transform="matrix(1 0 0 1 117.824 1572)">QSPI</text><text font-family="Arial,Arial_MSFontService,sans-serif" font-weight="400" font-size="44" transform="matrix(1 0 0 1 528.625 1326)">SPI</text><path d="M22.9166-1.14583 268.509-1.14583C268.813-1.14583 269.105-1.02475 269.32-0.809297 269.535-0.593843 269.655-0.301721 269.655 0.00262796L269.49 71.9235 267.198 71.9182 267.363-0.00262796 268.509 1.14583 22.9166 1.14583ZM27.5 13.75 0 0 27.5-13.75ZM282.25 67.8354 267.519 94.8227 254.768 66.8456Z" transform="matrix(1 0 0 -1 41.9999 1581.82)"/><path d="M1.26447 22.9162 1.2882 164.098 0.142362 162.953 186.369 162.953 186.369 165.244 0.142362 165.244C-0.490389 165.244-1.00337 164.731-1.00347 164.099L-1.0272 22.9166ZM-13.6075 27.5708 0 0 13.8922 27.4285ZM181.785 150.348 209.285 164.098 181.785 177.848Z" transform="matrix(1.83697e-16 1 1 -1.83697e-16 145 1100)"/><path d="M22.9167-1.71875 190.665-1.71875C191.614-1.71875 192.383-0.949239 192.383 0L192.383 100.99 190.665 99.2712 358.413 99.2712 358.413 102.709 190.665 102.709C189.715 102.709 188.946 101.939 188.946 100.99L188.946 0 190.665 1.71875 22.9167 1.71875ZM27.5 13.75 0 0 27.5-13.75ZM353.829 87.24 381.329 100.99 353.829 114.74Z" transform="matrix(-1 1.22465e-16 1.22465e-16 1 810.829 1240.5)"/><path d="M42.5004 1527.5-190.5 1527.5-190.5 1633.5 42.5004 1633.5 42.5004 1527.5 42.5004 1527.5" stroke="#000000" stroke-width="6.54984" stroke-linejoin="bevel" stroke-miterlimit="10" fill="#C6DBF2" fill-rule="evenodd"/><text font-family="Arial,Arial_MSFontService,sans-serif" font-weight="400" font-size="46" transform="matrix(1 0 0 1 -128.7 1570)">QSPI </text><text font-family="Arial,Arial_MSFontService,sans-serif" font-weight="400" font-size="46" transform="matrix(1 0 0 1 -122.398 1625)">flash</text><text font-family="Arial,Arial_MSFontService,sans-serif" font-weight="400" font-size="41" transform="matrix(1 0 0 1 20.0801 1238)">16 bit</text><text font-family="Arial,Arial_MSFontService,sans-serif" font-weight="400" font-size="41" transform="matrix(1 0 0 1 132.372 1238)">data</text><text font-family="Arial,Arial_MSFontService,sans-serif" font-weight="400" font-size="41" transform="matrix(1 0 0 1 -263.624 1684)">MIMXRT1060</text><text font-family="Arial,Arial_MSFontService,sans-serif" font-weight="400" font-size="41" transform="matrix(1 0 0 1 -9.24894 1684)">-</text><text font-family="Arial,Arial_MSFontService,sans-serif" font-weight="400" font-size="41" transform="matrix(1 0 0 1 4.50106 1684)">EVK </text><text font-family="Arial,Arial_MSFontService,sans-serif" font-weight="400" font-size="41" transform="matrix(1 0 0 1 98.4594 1684)">/ MIMXRT1060</text><text font-family="Arial,Arial_MSFontService,sans-serif" font-weight="400" font-size="41" transform="matrix(1 0 0 1 375.751 1684)">-</text><text font-family="Arial,Arial_MSFontService,sans-serif" font-weight="400" font-size="41" transform="matrix(1 0 0 1 389.501 1684)">EVKB </text><text font-family="Arial,Arial_MSFontService,sans-serif" font-weight="400" font-size="41" transform="matrix(1 0 0 1 -263.624 1734)">MIMXRT1060</text><text font-family="Arial,Arial_MSFontService,sans-serif" font-weight="400" font-size="41" transform="matrix(1 0 0 1 -9.24894 1734)">-</text><text font-family="Arial,Arial_MSFontService,sans-serif" font-weight="400" font-size="41" transform="matrix(1 0 0 1 4.50106 1734)">EVKC / MIMXRT1064</text><text font-family="Arial,Arial_MSFontService,sans-serif" font-weight="400" font-size="41" transform="matrix(1 0 0 1 405.543 1734)">-</text><text font-family="Arial,Arial_MSFontService,sans-serif" font-weight="400" font-size="41" transform="matrix(1 0 0 1 419.293 1734)">EVK</text><path d="M325.5 2217.5 260.5 2217.5 260.5 2282.5 325.5 2282.5 325.5 2217.5 325.5 2217.5" stroke="#090909" stroke-width="6.54984" stroke-linejoin="bevel" stroke-miterlimit="10" fill="#82B3DF" fill-rule="evenodd"/><text font-family="Arial,Arial_MSFontService,sans-serif" font-weight="400" font-size="48" transform="matrix(1 0 0 1 351.661 2267)">NXP Technology</text><text font-family="Arial,Arial_MSFontService,sans-serif" font-weight="700" font-size="46" transform="matrix(1 0 0 1 1897.05 268)">Metering Board </text><text font-family="Arial,Arial_MSFontService,sans-serif" font-weight="400" font-size="44" transform="matrix(1 0 0 1 1890.18 320)">TWR</text><text font-family="Arial,Arial_MSFontService,sans-serif" font-weight="400" font-size="44" transform="matrix(1 0 0 1 1989.29 320)">-</text><text font-family="Arial,Arial_MSFontService,sans-serif" font-weight="400" font-size="44" transform="matrix(1 0 0 1 2003.62 320)">KM35Z75M/ </text><text font-family="Arial,Arial_MSFontService,sans-serif" font-weight="400" font-size="44" transform="matrix(1 0 0 1 1890.18 373)">TWR</text><text font-family="Arial,Arial_MSFontService,sans-serif" font-weight="400" font-size="44" transform="matrix(1 0 0 1 1989.29 373)">-</text><text font-family="Arial,Arial_MSFontService,sans-serif" font-weight="400" font-size="44" transform="matrix(1 0 0 1 2003.62 373)">KM34Z75M/ </text><text font-family="Arial,Arial_MSFontService,sans-serif" font-weight="400" font-size="44" transform="matrix(1 0 0 1 1896.21 425)">TWR</text><text font-family="Arial,Arial_MSFontService,sans-serif" font-weight="400" font-size="44" transform="matrix(1 0 0 1 1995.32 425)">-</text><text font-family="Arial,Arial_MSFontService,sans-serif" font-weight="400" font-size="44" transform="matrix(1 0 0 1 2009.64 425)">KM34Z50M </text><path d="M2206.5 458.5 1894.5 458.5 1894.5 564.5 2206.5 564.5 2206.5 458.5 2206.5 458.5" stroke="#000000" stroke-width="6.54984" stroke-linejoin="bevel" stroke-miterlimit="10" fill="#C6DBF2" fill-rule="evenodd"/><text font-family="Arial,Arial_MSFontService,sans-serif" font-weight="400" font-size="46" transform="matrix(1 0 0 1 1958.82 501)">Segment </text><text font-family="Arial,Arial_MSFontService,sans-serif" font-weight="400" font-size="46" transform="matrix(1 0 0 1 2004.08 556)">LCD</text><text font-family="Arial,Arial_MSFontService,sans-serif" font-weight="400" font-size="83" transform="matrix(1 0 0 1 2450.81 132)">Electrical Vehicle Supply Equipment</text><text font-family="Arial,Arial_MSFontService,sans-serif" font-weight="400" font-size="46" transform="matrix(1 0 0 1 3296.97 1524)">MIMXRT1060</text><text font-family="Arial,Arial_MSFontService,sans-serif" font-weight="400" font-size="46" transform="matrix(1 0 0 1 3578.84 1524)">-</text><text font-family="Arial,Arial_MSFontService,sans-serif" font-weight="400" font-size="46" transform="matrix(1 0 0 1 3594.31 1524)">EVK/ </text><text font-family="Arial,Arial_MSFontService,sans-serif" font-weight="400" font-size="44" transform="matrix(1 0 0 1 3296.97 1576)">MIMXRT1060</text><text font-family="Arial,Arial_MSFontService,sans-serif" font-weight="400" font-size="44" transform="matrix(1 0 0 1 3564.52 1576)">-</text><text font-family="Arial,Arial_MSFontService,sans-serif" font-weight="400" font-size="44" transform="matrix(1 0 0 1 3578.84 1576)">EVKB</text><text font-family="Arial,Arial_MSFontService,sans-serif" font-weight="400" font-size="44" transform="matrix(1 0 0 1 3695.72 1576)">/ </text><text font-family="Arial,Arial_MSFontService,sans-serif" font-weight="400" font-size="44" transform="matrix(1 0 0 1 3296.97 1629)">MIMXRT106</text><text font-family="Arial,Arial_MSFontService,sans-serif" font-weight="400" font-size="44" transform="matrix(1 0 0 1 3540.46 1629)">0</text><text font-family="Arial,Arial_MSFontService,sans-serif" font-weight="400" font-size="44" transform="matrix(1 0 0 1 3564.52 1629)">-</text><text font-family="Arial,Arial_MSFontService,sans-serif" font-weight="400" font-size="44" transform="matrix(1 0 0 1 3578.84 1629)">EVK</text><text font-family="Arial,Arial_MSFontService,sans-serif" font-weight="400" font-size="44" transform="matrix(1 0 0 1 3666.5 1629)">C</text><text font-family="Arial,Arial_MSFontService,sans-serif" font-weight="400" font-size="83" transform="matrix(1 0 0 1 176.351 653)">Electrical Vehicle</text><path d="M3584.5 263.5 2809.5 263.5 2809.5 560.501 3584.5 560.501 3584.5 263.5 3584.5 263.5" stroke="#090909" stroke-width="6.54984" stroke-linejoin="bevel" stroke-miterlimit="10" fill="#E1EBF8" fill-rule="evenodd"/><path d="M3446.5 423.5 2922.5 423.5 2922.5 528.5 3446.5 528.5 3446.5 423.5 3446.5 423.5" stroke="#000000" stroke-width="6.54984" stroke-linejoin="bevel" stroke-miterlimit="10" fill="#C6DBF2" fill-rule="evenodd"/><text fill="#090909" font-family="Arial,Arial_MSFontService,sans-serif" font-weight="400" font-size="44" transform="matrix(1 0 0 1 2957.36 488)">4.3” TFT LCD Display</text><text fill="#090909" font-family="Arial,Arial_MSFontService,sans-serif" font-weight="700" font-size="46" transform="matrix(1 0 0 1 2828.88 322)">Display Panel </text><text font-family="Arial,Arial_MSFontService,sans-serif" font-weight="400" font-size="44" transform="matrix(1 0 0 1 2828.88 374)">RK043FN66HS</text><text font-family="Arial,Arial_MSFontService,sans-serif" font-weight="400" font-size="44" transform="matrix(1 0 0 1 3128.51 374)">-</text><text font-family="Arial,Arial_MSFontService,sans-serif" font-weight="400" font-size="44" transform="matrix(1 0 0 1 3142.83 374)">CTG / RK043FN02H</text><text fill="#090909" font-family="Arial,Arial_MSFontService,sans-serif" font-weight="700" font-size="46" transform="matrix(1 0 0 1 794.052 1024)">EasyEVSE</text><text fill="#090909" font-family="Arial,Arial_MSFontService,sans-serif" font-weight="700" font-size="46" transform="matrix(1 0 0 1 1034.1 1024)">EV </text><text fill="#090909" font-family="Arial,Arial_MSFontService,sans-serif" font-weight="700" font-size="46" transform="matrix(1 0 0 1 794.052 1079)">Charging Signal Board</text><text font-family="Arial,Arial_MSFontService,sans-serif" font-weight="700" font-size="46" transform="matrix(1 0 0 1 -309.656 1024)">Service Processing Board</text><path d="M4261.5 1210.5 3885.5 1210.5 3885.5 1609.5 4261.5 1609.5 4261.5 1210.5 4261.5 1210.5" stroke="#090909" stroke-width="6.54984" stroke-linejoin="bevel" stroke-miterlimit="10" fill="#E1EBF8" fill-rule="evenodd"/><path d="M4206.5 1376.5 3944.5 1376.5 3944.5 1572.5 4206.5 1572.5 4206.5 1376.5 4206.5 1376.5" stroke="#000000" stroke-width="6.54984" stroke-linejoin="bevel" stroke-miterlimit="10" fill="#82B3DF" fill-rule="evenodd"/><text font-family="Poppins,Poppins_MSFontService,sans-serif" font-weight="400" font-size="44" transform="matrix(1 0 0 1 4031.99 1462)">NFC </text><text font-family="Poppins,Poppins_MSFontService,sans-serif" font-weight="400" font-size="44" transform="matrix(1 0 0 1 3981.57 1514)">frontend</text><path d="M4471.47 1441.82C4464.22 1431.22 4464.22 1431.22 4464.22 1431.22 4463.46 1430.46 4463.07 1429.32 4462.69 1428.57 4462.31 1427.43 4461.93 1426.67 4461.55 1425.92 4461.17 1425.16 4461.17 1424.4 4460.78 1423.64 4451.62 1399.41 4451.62 1399.41 4451.62 1399.41 4450.86 1396.01 4449.33 1392.6 4447.04 1389.95 4435.21 1377.08 4414.21 1365.34 4408.49 1362.31 4400.47 1350.57 4400.47 1350.57 4400.47 1350.57 4396.27 1344.51 4387.87 1343 4381.76 1346.79 4296.63 1403.96 4296.63 1403.96 4296.63 1403.96 4296.63 1403.96 4296.63 1403.96 4296.63 1403.96 4290.53 1408.12 4289 1416.45 4292.82 1422.51 4322.98 1466.43 4322.98 1466.43 4322.98 1466.43 4327.17 1472.49 4335.19 1474 4341.3 1470.21 4401.61 1429.7 4401.61 1429.7 4401.61 1429.7 4405.05 1437.65 4408.87 1442.2 4421.08 1451.28 4421.85 1451.66 4421.85 1451.66 4421.85 1451.66 4423.37 1452.42 4424.52 1453.93 4425.66 1455.07 4426.05 1455.45 4426.43 1455.83 4426.81 1456.21 4434.06 1466.81 4434.06 1466.81 4434.06 1466.81 4435.59 1468.7 4437.88 1469.84 4440.17 1469.84 4441.32 1469.84 4442.84 1469.46 4443.99 1468.7 4469.56 1451.66 4469.56 1451.66 4469.56 1451.66 4471.09 1450.53 4472.24 1449.01 4472.62 1447.12 4473 1445.23 4472.24 1443.33 4471.47 1441.82ZM4335.95 1461.88C4334.43 1463.02 4332.14 1462.64 4330.99 1461.13 4301.22 1416.83 4301.22 1416.83 4301.22 1416.83 4300.07 1415.32 4300.45 1413.04 4301.98 1412.29 4387.11 1355.12 4387.11 1355.12 4387.11 1355.12 4387.49 1355.12 4387.49 1355.12 4387.49 1355.12 4389.02 1353.98 4391.31 1354.36 4392.45 1355.87 4422.23 1400.17 4422.23 1400.17 4422.23 1400.17 4423.37 1401.68 4422.99 1403.96 4421.46 1405.09 4418.79 1406.61 4418.79 1406.61 4418.79 1406.61 4416.12 1401.31 4410.39 1391.08 4408.1 1388.81 4403.14 1383.89 4396.65 1385.03 4392.45 1387.3 4389.4 1389.19 4387.49 1392.22 4386.73 1395.63 4385.58 1399.41 4386.34 1403.2 4388.63 1406.23 4397.03 1420.99 4397.03 1420.99 4397.03 1420.99L4335.95 1461.88ZM4440.55 1459.23C4434.83 1450.53 4434.83 1450.53 4434.83 1450.53 4434.06 1449.77 4433.68 1449.01 4432.92 1448.63 4431.39 1446.74 4429.1 1444.85 4427.19 1443.33 4426.81 1443.33 4426.81 1443.33 4426.81 1443.33 4412.3 1432.35 4408.49 1420.62 4408.1 1420.24 4396.65 1400.93 4396.65 1400.93 4396.65 1400.93 4396.65 1400.93 4396.65 1400.93 4396.65 1400.93 4395.89 1400.17 4395.89 1398.66 4396.27 1397.52 4396.27 1396.76 4396.65 1396.01 4397.42 1395.63 4398.94 1394.87 4400.85 1395.25 4402 1396.76 4411.54 1410.39 4411.54 1410.39 4411.54 1410.39 4415.36 1416.07 4422.99 1417.97 4429.1 1414.18 4432.15 1412.66 4434.06 1409.64 4434.83 1406.23 4435.59 1402.44 4435.21 1398.66 4432.92 1395.25 4422.99 1382.75 4422.99 1382.75 4422.99 1382.75 4429.1 1386.92 4435.21 1391.46 4439.79 1396.38 4440.93 1397.9 4442.46 1402.06 4442.46 1402.06 4442.46 1402.06 4451.62 1427.05 4451.62 1427.05 4452 1427.81 4452.39 1428.57 4452.77 1429.7 4452.77 1430.46 4453.15 1431.22 4453.53 1431.6 4454.29 1433.49 4455.06 1435 4456.2 1436.52 4461.93 1445.23 4461.93 1445.23 4461.93 1445.23L4440.55 1459.23Z" fill-rule="evenodd"/><path d="M4372.95 1394.95C4362.27 1393 4351.6 1394.95 4342.06 1401.19 4332.91 1407.04 4326.43 1416.4 4323.38 1426.93 4323.38 1427.32 4323.38 1427.32 4323.38 1427.32 4323 1428.88 4324.14 1430.83 4326.05 1431.22 4328.34 1431.61 4328.34 1431.61 4328.34 1431.61 4328.72 1432 4329.1 1432 4329.1 1432 4330.63 1432 4332.15 1430.83 4332.53 1429.27 4334.82 1420.69 4339.78 1413.67 4347.02 1408.99 4354.27 1404.31 4363.04 1402.75 4371.42 1404.31 4372.95 1404.31 4374.47 1403.53 4375.24 1401.97 4375.24 1401.97 4375.24 1401.58 4375.24 1401.58 4376 1399.24 4376 1399.24 4376 1399.24 4376 1398.07 4375.62 1397.29 4375.24 1396.51 4374.86 1395.73 4374.09 1395.34 4372.95 1394.95Z" fill-rule="evenodd"/><path d="M4371.9 1411.22C4357.19 1409 4343.26 1417.51 4339 1431.19 4339 1431.19 4339 1431.19 4339 1431.19 4339 1431.19 4339 1431.56 4339 1431.56 4339 1432.3 4339 1433.04 4339.39 1433.78 4340.16 1434.52 4340.94 1435.26 4341.71 1435.26 4344.03 1436 4344.03 1436 4344.03 1436 4344.03 1436 4344.42 1436 4344.42 1436 4344.42 1436 4344.81 1436 4344.81 1436 4346.35 1436 4347.9 1434.89 4348.29 1433.41 4351 1424.53 4360.29 1418.62 4370.35 1420.1 4371.9 1420.47 4373.45 1419.36 4373.84 1418.25 4374.23 1417.88 4374.23 1417.88 4374.23 1417.51 4374.61 1415.29 4374.61 1415.29 4374.61 1415.29 4374.61 1415.29 4374.61 1415.29 4374.61 1415.29 4375 1413.44 4373.84 1411.59 4371.9 1411.22Z" fill-rule="evenodd"/><text font-family="Arial,Arial_MSFontService,sans-serif" font-weight="700" font-size="46" transform="matrix(1 0 0 1 3905.08 1281)">NFC Board</text><text font-family="Arial,Arial_MSFontService,sans-serif" font-weight="400" font-size="44" transform="matrix(1 0 0 1 3905.08 1333)">CLEV6630ARD</text><g><g><g><path d="M335.065 167.261C336.332 162.193 337.056 156.762 337.056 151.512 337.056 116.214 308.455 87.6129 273.157 87.6129 264.287 87.6129 255.598 89.4231 247.633 92.8625 228.988 67.5199 199.301 52.4953 167.623 52.4953 115.128 52.4953 71.8643 93.2245 68.787 145.539 37.1088 157.486 15.9296 187.897 15.9296 221.929 15.9296 266.821 52.4953 303.387 97.3879 303.387L299.405 303.387C339.591 303.387 372.174 270.804 372.174 230.618 372.174 204.189 358.055 180.113 335.065 167.261ZM91.5953 160.563C91.2333 157.667 91.0523 154.771 91.0523 151.512 91.0523 109.335 125.446 74.9416 167.623 74.9416 198.939 74.9416 226.816 93.5865 238.582 122.549 238.944 123.274 239.668 123.817 240.393 123.998 241.298 124.179 242.022 123.817 242.565 123.274 250.53 114.766 261.391 110.059 272.976 110.059 295.784 110.059 314.429 128.704 314.429 151.512 314.429 160.925 311.352 169.614 305.74 177.036 305.197 177.76 305.016 178.665 305.378 179.389 305.74 180.113 306.464 180.837 307.188 180.837 331.807 184.639 349.547 205.637 349.547 230.436 349.547 258.132 326.919 280.76 299.224 280.76L97.3879 280.76C64.8046 280.76 38.3759 254.331 38.3759 221.748 38.3759 192.242 60.2791 167.08 89.6041 163.279 90.8713 163.098 91.7764 162.012 91.5953 160.563Z" transform="matrix(1 0 0 1.00256 3828 150)"/></g></g></g><path d="M14.376 17.9291 22.1511 29.2697 19.316 31.2135 11.5409 19.8729ZM27.9824 37.7752 35.7575 49.1159 32.9224 51.0596 25.1473 39.719ZM41.5889 57.6213 49.364 68.962 46.5288 70.9058 38.7537 59.5651ZM55.1953 77.4675 62.9704 88.8081 60.1353 90.7519 52.3601 79.4113ZM68.8017 97.3136 76.5769 108.654 73.7417 110.598 65.9666 99.2574ZM82.4082 117.16 90.1833 128.5 87.3481 130.444 79.573 119.104ZM96.0146 137.006 103.79 148.347 100.955 150.29 93.1795 138.95ZM109.621 156.852 117.396 168.193 114.561 170.136 106.786 158.796ZM123.227 176.698 131.003 188.039 128.167 189.983 120.392 178.642ZM136.834 196.544 144.609 207.885 141.774 209.829 133.999 198.488ZM150.44 216.39 158.215 227.731 155.38 229.675 147.605 218.334ZM4.20956 30.4564 0 0 26.8909 14.9062ZM170.012 223.661 174.222 254.117 147.331 239.211Z" transform="matrix(1 0 0 -1 3757.5 719.617)"/><path d="M4140.78 679.009 4140.78 665.259 4144.22 665.259 4144.22 679.009ZM4140.78 654.946 4140.78 641.196 4144.22 641.196 4144.22 654.946ZM4140.78 630.884 4140.78 617.134 4144.22 617.134 4144.22 630.884ZM4140.78 606.821 4140.78 593.071 4144.22 593.071 4144.22 606.821ZM4140.78 582.759 4140.78 569.009 4144.22 569.009 4144.22 582.759ZM4140.78 558.696 4140.78 544.946 4144.22 544.946 4144.22 558.696ZM4140.78 534.634 4140.78 520.884 4144.22 520.884 4144.22 534.634ZM4140.78 510.571 4140.78 496.821 4144.22 496.821 4144.22 510.571ZM4140.78 486.509 4140.78 479.417 4144.22 479.417 4144.22 486.509ZM4156.25 674.425 4142.5 701.925 4128.75 674.425ZM4128.75 484 4142.5 456.5 4156.25 484Z"/><text font-family="Arial,Arial_MSFontService,sans-serif" font-weight="400" font-size="44" transform="matrix(0.596643 -0.802507 0.802507 0.596643 3753.51 584)">TLS</text><text font-family="Arial,Arial_MSFontService,sans-serif" font-weight="400" font-size="44" transform="matrix(0.596643 -0.802507 0.802507 0.596643 3777.92 640)">TCP/IP</text><text font-family="Arial,Arial_MSFontService,sans-serif" font-weight="400" font-size="44" transform="matrix(1 0 0 1 4202.98 569)">TLS</text><text font-family="Arial,Arial_MSFontService,sans-serif" font-weight="400" font-size="44" transform="matrix(1 0 0 1 4172.61 622)">TCP/IP</text><path d="M4498.5 706.5 3877.5 706.5 3877.5 1151.5 4498.5 1151.5 4498.5 706.5 4498.5 706.5" stroke="#090909" stroke-width="6.64042" stroke-linejoin="bevel" stroke-miterlimit="10" fill="#E1EBF8" fill-rule="evenodd"/><text font-family="Arial,Arial_MSFontService,sans-serif" font-weight="400" font-size="44" transform="matrix(1 0 0 1 3419.49 1164)">SDIO</text><text font-family="Arial,Arial_MSFontService,sans-serif" font-weight="700" font-size="46" transform="matrix(1 0 0 1 3903.43 779)">Wireless Communications </text><text font-family="Arial,Arial_MSFontService,sans-serif" font-weight="700" font-size="46" transform="matrix(1 0 0 1 3903.43 834)">Board</text><text font-family="Arial,Arial_MSFontService,sans-serif" font-weight="400" font-size="44" transform="matrix(1 0 0 1 3903.43 886)">LBEE5CJ1XK</text><path d="M4275.5 921.5 4013.5 921.5 4013.5 1117.5 4275.5 1117.5 4275.5 921.5 4275.5 921.5" stroke="#000000" stroke-width="6.54984" stroke-linejoin="bevel" stroke-miterlimit="10" fill="#82B3DF" fill-rule="evenodd"/><text font-family="Arial,Arial_MSFontService,sans-serif" font-weight="400" font-size="44" transform="matrix(1 0 0 1 4085.95 1005)">IW416 </text><text font-family="Arial,Arial_MSFontService,sans-serif" font-weight="400" font-size="44" transform="matrix(1 0 0 1 4040.12 1058)">Dual</text><text font-family="Arial,Arial_MSFontService,sans-serif" font-weight="400" font-size="44" transform="matrix(1 0 0 1 4129.49 1058)">-</text><text font-family="Arial,Arial_MSFontService,sans-serif" font-weight="400" font-size="44" transform="matrix(1 0 0 1 4143.82 1058)">Radio </text><path d="M22.9166-1.71875 273.849-1.71875C274.798-1.71875 275.568-0.949239 275.568 0L275.568 172.513 273.849 170.795 524.781 170.795 524.781 174.232 273.849 174.232C272.9 174.232 272.13 173.463 272.13 172.513L272.13 0 273.849 1.71875 22.9166 1.71875ZM27.5 13.75 0 0 27.5-13.75ZM520.198 158.763 547.698 172.513 520.198 186.263Z" transform="matrix(1 0 0 -1 3316.5 1177.01)"/><text font-family="Arial,Arial_MSFontService,sans-serif" font-weight="400" font-size="44" transform="matrix(1 0 0 1 3426.58 1308)">SPI</text><path d="M3495.5 1770.5 2970.5 1770.5 2970.5 2184.5 3495.5 2184.5 3495.5 1770.5 3495.5 1770.5" stroke="#000000" stroke-width="6.54984" stroke-linejoin="bevel" stroke-miterlimit="10" fill="#E1EBF8" fill-rule="evenodd"/><path d="M3416.5 1913.5 3048.5 1913.5 3048.5 2137.5 3416.5 2137.5 3416.5 1913.5 3416.5 1913.5" stroke="#000000" stroke-width="6.54984" stroke-linejoin="bevel" stroke-miterlimit="10" fill="#82B3DF" fill-rule="evenodd"/><path d="M3232.85 2062C3227.48 2062 3223 2066.29 3223 2071.43 3223 2074.86 3224.79 2077.71 3227.48 2079.43 3227.78 2079.71 3227.78 2079.71 3227.78 2079.71 3227.78 2085.14 3227.78 2085.14 3227.78 2085.14 3227.78 2087.71 3230.16 2090 3232.85 2090 3235.84 2090 3238.22 2087.71 3238.22 2085.14 3238.22 2079.71 3238.22 2079.71 3238.22 2079.71 3238.52 2079.43 3238.52 2079.43 3238.52 2079.43 3241.21 2077.71 3243 2074.86 3243 2071.43 3243 2066.29 3238.52 2062 3232.85 2062Z" fill-rule="evenodd"/><path d="M3271.17 2045.02C3268.33 2045.02 3268.33 2045.02 3268.33 2045.02 3268.33 2044.45 3268.33 2044.45 3268.33 2044.45 3268.33 2044.45 3268.33 2036.54 3268.33 2032.31 3268.04 2026.09 3266.05 2019.88 3266.05 2019.88 3260.92 2006.32 3247.53 1997 3233.29 1997 3233 1997 3233 1997 3233 1997 3223.6 1997 3214.77 2000.67 3208.22 2007.17 3204.51 2010.84 3201.95 2015.08 3199.95 2019.88 3199.95 2019.88 3199.95 2019.88 3199.95 2019.88 3199.95 2019.88 3197.96 2023.55 3197.96 2032.02 3197.96 2045.02 3197.96 2045.02 3197.96 2045.02 3195.11 2045.02 3195.11 2045.02 3195.11 2045.02 3188.84 2045.02 3184 2049.82 3184 2056.03 3184 2097.27 3184 2097.27 3184 2097.27 3184 2103.2 3188.84 2108 3195.11 2108 3271.17 2108 3271.17 2108 3271.17 2108 3277.16 2108 3282 2103.2 3282 2097.27 3282 2056.03 3282 2056.03 3282 2056.03 3282 2049.82 3277.16 2045.02 3271.17 2045.02ZM3205.94 2032.02C3205.94 2017.05 3218.19 2004.91 3233 2004.91 3248.1 2004.91 3260.06 2017.05 3260.06 2032.02 3260.06 2045.02 3260.06 2045.02 3260.06 2045.02 3205.94 2045.02 3205.94 2045.02 3205.94 2045.02L3205.94 2032.02ZM3274.02 2096.98C3274.02 2098.68 3272.6 2100.09 3271.17 2100.09 3194.83 2100.09 3194.83 2100.09 3194.83 2100.09 3193.4 2100.09 3191.98 2098.68 3191.98 2096.98 3191.98 2056.03 3191.98 2056.03 3191.98 2056.03 3191.98 2054.34 3193.4 2053.21 3194.83 2053.21 3271.17 2053.21 3271.17 2053.21 3271.17 2053.21 3272.6 2053.21 3274.02 2054.34 3274.02 2056.03L3274.02 2096.98Z" fill-rule="evenodd"/><text fill="#090909" font-family="Arial,Arial_MSFontService,sans-serif" font-weight="700" font-size="46" transform="matrix(1 0 0 1 2996.15 1835)">Security Board</text><text fill="#090909" font-family="Arial,Arial_MSFontService,sans-serif" font-weight="400" font-size="44" transform="matrix(1 0 0 1 2996.15 1887)">OM</text><text fill="#090909" font-family="Arial,Arial_MSFontService,sans-serif" font-weight="400" font-size="44" transform="matrix(1 0 0 1 3066.04 1887)">-</text><text fill="#090909" font-family="Arial,Arial_MSFontService,sans-serif" font-weight="400" font-size="44" transform="matrix(1 0 0 1 3080.36 1887)">SE050ARD</text><text fill="#090909" font-family="Arial,Arial_MSFontService,sans-serif" font-weight="400" font-size="44" transform="matrix(1 0 0 1 3303.23 1887)">-</text><text fill="#090909" font-family="Arial,Arial_MSFontService,sans-serif" font-weight="400" font-size="44" transform="matrix(1 0 0 1 3317.55 1887)">E</text><text fill="#090909" font-family="Arial,Arial_MSFontService,sans-serif" font-weight="400" font-size="44" transform="matrix(1 0 0 1 3084.71 1979)">Secure Element</text><text font-family="Arial,Arial_MSFontService,sans-serif" font-weight="700" font-size="46" transform="matrix(1 0 0 1 2535.99 802)">Service Processing Board</text></g></svg>